<?xml version="1.0" encoding="UTF-8" standalone="no"?>
<!-- Created with Inkscape (http://www.inkscape.org/) -->

<svg
   xmlns:dc="http://purl.org/dc/elements/1.1/"
   xmlns:cc="http://creativecommons.org/ns#"
   xmlns:rdf="http://www.w3.org/1999/02/22-rdf-syntax-ns#"
   xmlns:svg="http://www.w3.org/2000/svg"
   xmlns="http://www.w3.org/2000/svg"
   xmlns:sodipodi="http://sodipodi.sourceforge.net/DTD/sodipodi-0.dtd"
   xmlns:inkscape="http://www.inkscape.org/namespaces/inkscape"
   height="21.914614mm"
   width="102.02686mm"
   viewBox="0 0 361.51251 77.650206"
   id="svg3369"
   version="1.1"
   inkscape:version="0.91 r13725"
   sodipodi:docname="alarm2sms.svg">
  <defs
     id="defs3375" />
  <sodipodi:namedview
     pagecolor="#ffffff"
     bordercolor="#666666"
     borderopacity="1"
     objecttolerance="10"
     gridtolerance="10"
     guidetolerance="10"
     inkscape:pageopacity="0"
     inkscape:pageshadow="2"
     inkscape:window-width="1543"
     inkscape:window-height="876"
     id="namedview3373"
     showgrid="false"
     fit-margin-top="0"
     fit-margin-left="0"
     fit-margin-right="0"
     fit-margin-bottom="0"
     inkscape:zoom="1.2685914"
     inkscape:cx="221.64802"
     inkscape:cy="-8.6649993"
     inkscape:window-x="57"
     inkscape:window-y="24"
     inkscape:window-maximized="1"
     inkscape:current-layer="svg3369" />
  <metadata
     id="metadata3371">
    <rdf:RDF>
      <cc:Work
         rdf:about="">
        <dc:format>image/svg+xml</dc:format>
        <dc:type
           rdf:resource="http://purl.org/dc/dcmitype/StillImage" />
        <dc:title></dc:title>
      </cc:Work>
    </rdf:RDF>
  </metadata>
  <path
     inkscape:connector-curvature="0"
     style="fill:#43b649"
     d="m 40.525,0 5.125,0 c 10.4,6.825 13.65,19.6875 17.2125,30.8375 3.0125,11.725 6.325,23.7 5.775,35.9125 C 63.2125,52.4875 62.5,36.775 55.875,22.875 52.8875,16.7625 49.2375,9.6125 42.2375,7.525 35.975,6.0125 31.45,11.325 27.475,15.2 30.075,8.8875 34.7625,3.625 40.525,0 Z"
     id="path6" />
  <path
     inkscape:connector-curvature="0"
     style="fill:#43b649"
     d="M 10.175,2.625 C 13.9375,0.9375 18.025,1.9875 21.7875,3.0375 15.5375,3.65 7.8625,4.9625 5.175,11.5625 1.55,17.6875 3.7,24.9 7.125,30.5375 4.2,27.65 1.575,24.4125 0,20.5625 L 0,13.225 C 2.2625,8.8375 5.075,4.0375 10.175,2.625 Z"
     id="path8" />
  <path
     inkscape:connector-curvature="0"
     style="fill:#43b649"
     d="m 9.65,13.55 c 2.3375,-3.4625 6.5,-4.9375 10.55,-4.8625 -2.9125,2.175 -6.925,3.0875 -8.8875,6.3625 -2.725,3.375 -0.7,7.8375 -0.3875,11.65 C 8.35,22.925 6.8375,17.625 9.65,13.55 Z"
     id="path10" />
  <path
     inkscape:connector-curvature="0"
     style="fill:#43b649"
     d="m 16.8875,18.775 c 0.8875,-1.0875 1.925,-1.9625 3.1125,-2.6125 2.2875,1.0375 4.3,2.55 6.2875,4.05 -0.95,1.1875 -1.9125,2.375 -2.85,3.5625 -2.3875,-1.3875 -4.625,-3.025 -6.55,-5 z"
     id="path12" />
  <path
     inkscape:connector-curvature="0"
     style="fill:#43b649"
     d="M 43.0875,20.5 C 48.5,18.1125 54.525,25.4625 51.8,30.4375 c -1.225,3.425 -5.1625,4.275 -8.075,5.75 C 39.925,37.9 33.95,38.975 31.65,34.5 c -0.5375,-2.5625 -1.025,-5.3625 -0.325,-7.925 3.05,-3.3375 7.7625,-4.3 11.7625,-6.075 z"
     id="path14" />
  <path
     inkscape:connector-curvature="0"
     style="fill:#3d3f42"
     d="m 98.875,32.5 c 6.4875,0.025 12.975,-0.075 19.45,0.0625 0.9375,0.9625 1.8875,1.9125 2.8375,2.8625 0.15,5.9625 0.15,11.9375 0.0125,17.9 -1.4,1.3375 -2.7625,2.6875 -4.1,4.075 -5.5375,-0.0375 -11.1625,0.6 -16.6375,-0.25 -5.025,-1.3875 -4.5125,-7.6875 -4,-11.7875 5.7,-5.2375 14.125,-1.9625 21.0625,-2.8875 0,-2.0625 0,-4.125 0,-6.1875 -5.3625,-0.075 -10.7125,-0.0125 -16.075,-0.0625 -0.675,1.2375 -1.3375,2.475 -1.975,3.7375 -0.8625,0.0125 -2.6,0.0375 -3.4625,0.05 0.225,-2.75 1.475,-5.2 2.8875,-7.5125 z"
     id="path16" />
  <path
     inkscape:connector-curvature="0"
     style="fill:#3d3f42"
     d="m 126.275,32.5 c 0.925,0 2.775,0 3.7,-0.0125 0.175,6.5625 -0.25,13.1375 0.175,19.675 0.3625,0.3625 1.075,1.075 1.4375,1.4375 6.5375,0.425 13.1125,0 19.6625,0.175 0,0.925 0,2.775 0,3.7 -8.325,0.05 -16.6625,0.0375 -24.9875,0.0125 C 126.2375,49.15 126.225,40.825 126.275,32.5 Z"
     id="path18" />
  <path
     inkscape:connector-curvature="0"
     style="fill:#3d3f42"
     d="m 156.375,32.5 c 6.4875,0.025 12.975,-0.075 19.4625,0.0625 0.925,0.9625 1.8625,1.925 2.8125,2.8625 0.175,5.975 0.1625,11.9375 0.025,17.9 -1.4,1.3375 -2.7625,2.7 -4.1,4.1 -5.2125,0.05 -10.4375,0.3125 -15.65,-0.05 -7.225,-0.875 -7.2125,-13.875 0,-14.7625 5.35,-0.325 10.725,-0.0125 16.075,-0.1375 0,-2.0625 0,-4.125 0,-6.1875 -5.325,-0.075 -10.6625,-0.025 -15.9875,-0.05 -0.7125,1.225 -1.4,2.4625 -2.075,3.7125 -0.8625,0.0125 -2.5875,0.05 -3.45,0.0625 0.2375,-2.75 1.4875,-5.2 2.8875,-7.5125 z"
     id="path20" />
  <path
     inkscape:connector-curvature="0"
     style="fill:#3d3f42"
     d="m 186.3625,32.5 c 4.9625,-0.0125 9.925,-0.025 14.8875,0.025 0,0.9375 0,2.7875 0,3.7125 -4.0375,0.0625 -8.1,-0.2 -12.125,0.175 -1.3,0.8625 -1.8375,2.075 -1.625,3.6375 -0.0875,5.8125 0.0625,11.6375 -0.025,17.45 -0.925,0 -2.775,0 -3.7,0 0.0125,-6.2375 -0.1625,-12.475 0.0125,-18.7125 0.05,-2.3375 1.5875,-4.2625 2.575,-6.2875 z"
     id="path22" />
  <path
     inkscape:connector-curvature="0"
     style="fill:#3d3f42"
     d="m 206.3875,32.5 c 9.4,0.025 18.8,-0.0875 28.1875,0.0625 0.9375,0.9625 1.9,1.9125 2.8625,2.8625 0.1375,7.3625 0.0625,14.725 0.0375,22.0875 C 236.55,57.5 234.7,57.5 233.775,57.5 c -0.0625,-7.075 0,-14.1625 -0.0375,-21.2375 -3.75,-0.025 -7.4875,-0.025 -11.225,0 -0.0375,7.075 0.025,14.1625 -0.0375,21.2375 -0.925,0 -2.775,0 -3.7,0 -0.0625,-7.075 0,-14.1625 -0.0375,-21.25 -3.6,0.575 -8.4625,-1.5375 -11.075,1.6125 -0.45,6.5375 0,13.1 -0.1875,19.6375 -0.925,0 -2.775,0 -3.7,0 0.0125,-6.2375 -0.15,-12.475 0,-18.7125 0,-2.3625 1.6,-4.2625 2.6125,-6.2875 z"
     id="path24" />
  <path
     inkscape:connector-curvature="0"
     style="fill:#3d3f42"
     d="m 270.425,32.5625 c 6.375,0.025 12.8,-0.4125 19.1625,0.1875 2.55,1.5 1.35,4.8 1.75,7.225 -0.9,0.0125 -2.7,0.05 -3.6,0.0625 -0.125,-0.95 -0.35,-2.8375 -0.4625,-3.7875 -5.35,0 -10.6875,-0.025 -16.025,0.0375 0,2.0625 0,4.125 0,6.1875 5.75,0.025 11.5,0.0125 17.25,0.05 1.8875,2.475 4.5875,5.125 4.025,8.525 -1.0125,3.3125 -3.475,7.1625 -7.475,6.4625 -5.7375,-0.4875 -12.8125,1.8 -17.3125,-2.9 -0.1875,-1.5375 -0.3125,-3.0875 -0.3625,-4.65 0.8375,0.025 2.4875,0.075 3.3125,0.0875 0.675,1.25 1.3625,2.4875 2.075,3.7125 4.425,-0.0125 8.8625,-0.0125 13.3,-0.0125 2.5875,-2.025 3.175,-4.75 1.225,-7.4875 -5.625,-0.025 -11.2375,0.025 -16.8625,-0.075 -0.95,-0.9625 -1.9125,-1.925 -2.8875,-2.8625 -0.0375,-2.6375 -0.0375,-5.2625 0,-7.9 0.9625,-0.9375 1.925,-1.9 2.8875,-2.8625 z"
     id="path26" />
  <path
     inkscape:connector-curvature="0"
     style="fill:#3d3f42"
     d="m 300.425,32.5625 c 9.4125,-0.15 18.8375,-0.05 28.2625,-0.0375 4.3375,7.6375 2.0125,16.65 2.5375,24.9875 C 330.3,57.5 328.45,57.5 327.525,57.5 c -0.1875,-6.5375 0.2625,-13.1 -0.1875,-19.625 -2.625,-3.15 -7.475,-1.0625 -11.075,-1.625 -0.0375,7.0875 0.025,14.175 -0.0375,21.25 -0.925,0 -2.775,0 -3.7,0.0125 -0.0625,-7.0875 0,-14.175 -0.0375,-21.25 -3.7375,-0.025 -7.4875,-0.025 -11.225,0 -0.0375,7.075 0.025,14.1625 -0.0375,21.2375 -0.925,0 -2.775,0 -3.7,0 -0.025,-7.35 -0.1,-14.7125 0.0375,-22.075 0.9625,-0.95 1.9125,-1.9 2.8625,-2.8625 z"
     id="path28" />
  <path
     inkscape:connector-curvature="0"
     style="fill:#3d3f42"
     d="m 339.175,32.5625 c 6.4875,-0.15 12.9625,-0.0375 19.45,-0.075 1.4,2.325 2.65,4.775 2.8875,7.525 -0.8625,-0.0125 -2.5875,-0.05 -3.45,-0.075 -0.675,-1.2375 -1.3625,-2.475 -2.075,-3.7 -5.375,0.0375 -10.75,-0.0375 -16.1125,0.075 0.275,2.0875 -0.5,4.775 1.7375,6.025 5.125,0.625 10.3625,-0.425 15.4375,0.5125 4.45,1.125 4.7875,6.675 3.975,10.4 -1.225,1.4625 -2.5875,2.8 -3.9,4.1875 -5.5625,0.1 -11.1375,0.1375 -16.7,-0.025 -1.3375,-1.3875 -2.6875,-2.75 -4.0625,-4.075 -0.0375,-0.8375 -0.1125,-2.525 -0.15,-3.375 0.8,0.025 2.4125,0.075 3.2125,0.1 0.675,1.2375 1.375,2.475 2.0875,3.6875 4.7875,-0.1 9.6125,0.3 14.3875,-0.2 3.1375,-1.7625 2,-8.25 -2.2,-7.3 -5.8,-0.7125 -12.825,2.0125 -17.4125,-2.725 -0.025,-2.7 -0.0375,-5.4 -0.0125,-8.0875 0.975,-0.95 1.9375,-1.9 2.9,-2.875 z"
     id="path30" />
  <path
     inkscape:connector-curvature="0"
     style="fill:#43b649"
     d="m 25,33.525 c 4.525,12.6875 7.95,26.4625 17.1375,36.8375 3.4375,4.075 10.675,5.4625 14.5,1.225 C 58.5,69.9375 60.5625,68.55 62.725,67.35 59.525,74.2375 51.7875,79.1625 44.1125,77.225 37.775,75.225 34.3,68.95 31.825,63.2375 28.3125,53.6875 25.9,43.65 25,33.525 Z"
     id="path32" />
  <path
     inkscape:connector-curvature="0"
     style="fill:#43b649"
     d="m 243.8875,37.575 c 6.1875,-0.0875 12.3625,-0.075 18.55,0 0.0625,4.05 0.0625,8.1125 -0.1125,12.1625 -5.0125,-0.35 -10.0375,-0.25 -15.05,0.025 -0.025,1 -0.0625,3 -0.0875,4 5.1,0.025 10.2,0.0375 15.3,0.0625 0,0.9 0,2.6875 0.0125,3.5875 -6.525,0.025 -13.0625,0.4125 -19.5625,-0.3125 -0.15,-3.8375 -0.0625,-7.675 0.1875,-11.5 5.2125,-0.35 10.4375,-0.275 15.6625,-0.325 0,-1 0,-3.0125 0,-4.025 -5.45,-0.0625 -10.9,0.025 -16.35,-0.2125 0.475,-1.15 0.9625,-2.3125 1.45,-3.4625 z"
     id="path34" />
  <path
     inkscape:connector-curvature="0"
     style="fill:#43b649"
     d="m 52.5375,40.2875 c 1.175,0.4125 2.35,0.825 3.5375,1.2375 -0.7,1.275 -1.375,2.55 -2.0625,3.825 -0.75,-0.5 -2.2375,-1.5 -2.975,-2 0.4875,-1.025 0.9875,-2.05 1.5,-3.0625 z"
     id="path36" />
  <path
     inkscape:connector-curvature="0"
     style="fill:#43b649"
     d="m 44.9875,42.5125 c 0.925,0.025 2.775,0.0625 3.7,0.0875 -0.0125,0.8875 -0.025,2.675 -0.025,3.5625 -0.8875,0 -2.675,0.0125 -3.5625,0.0125 -0.025,-0.9125 -0.0875,-2.75 -0.1125,-3.6625 z"
     id="path38" />
  <path
     inkscape:connector-curvature="0"
     style="fill:#43b649"
     d="m 37.8375,43.6625 c 2.5125,0.425 3.6875,2.45 3.75,4.8625 -1.3625,-0.4625 -2.7375,-0.925 -4.1,-1.375 0.0875,-0.875 0.2625,-2.625 0.35,-3.4875 z"
     id="path40" />
  <path
     inkscape:connector-curvature="0"
     style="fill:#ffffff"
     d="m 101.6,46.4375 c 5.3125,-0.4875 10.65,-0.1 15.975,-0.1375 -0.375,2.4375 0.8875,5.75 -1.7,7.275 -4.7375,0.35 -9.525,0.3625 -14.2625,-0.0125 C 99.2,52.1375 99.1875,47.85 101.6,46.4375 Z"
     id="path42" />
  <path
     inkscape:connector-curvature="0"
     style="fill:#ffffff"
     d="m 159.1,46.4375 c 5.3125,-0.4875 10.65,-0.1 15.975,-0.1375 -0.375,2.4375 0.8875,5.75 -1.7,7.275 -4.7375,0.35 -9.525,0.3625 -14.2625,-0.0125 -2.4125,-1.425 -2.4125,-5.7 -0.0125,-7.125 z"
     id="path44" />
  <path
     inkscape:connector-curvature="0"
     style="fill:#43b649"
     d="m 55.075,47.6 c 1.125,0.425 2.25,0.85 3.375,1.275 -0.4375,1.225 -0.8625,2.45 -1.2875,3.6875 -1.2125,-0.5 -2.4375,-1 -3.65,-1.525 0.5125,-1.15 1.0375,-2.3 1.5625,-3.4375 z"
     id="path46" />
  <path
     inkscape:connector-curvature="0"
     style="fill:#43b649"
     d="m 47.7125,48.9 c 1.1625,0.5 2.3375,0.9875 3.5125,1.475 -0.425,1.0875 -0.85,2.175 -1.275,3.2625 -1.1625,-0.4625 -2.325,-0.9 -3.4875,-1.3375 0.425,-1.1375 0.8375,-2.2625 1.25,-3.4 z"
     id="path48" />
  <path
     inkscape:connector-curvature="0"
     style="fill:#43b649"
     d="m 39.9875,51.275 c 0.95,0.025 2.85,0.075 3.8,0.1 -0.0875,0.8375 -0.25,2.5 -0.3375,3.3375 C 42.625,54.775 40.975,54.925 40.15,55 40.1125,54.0625 40.025,52.2 39.9875,51.275 Z"
     id="path50" />
  <path
     inkscape:connector-curvature="0"
     style="fill:#43b649"
     d="m 56.1,54.975 c 1.4625,0.5125 2.9125,1.0375 4.3625,1.575 -0.6625,1.2625 -1.0375,2.975 -2.75,3.1 -1.525,-1.1 -1.325,-3.0375 -1.6125,-4.675 z"
     id="path52" />
  <path
     inkscape:connector-curvature="0"
     style="fill:#43b649"
     d="m 50,56.3375 c 1.1625,0.475 2.3375,0.925 3.5125,1.375 C 53.1,58.825 52.7,59.95 52.3,61.0625 c -1.225,-0.5 -2.4625,-1 -3.6875,-1.5 0.45,-1.075 0.9125,-2.15 1.3875,-3.225 z"
     id="path54" />
  <path
     inkscape:connector-curvature="0"
     style="fill:#43b649"
     d="M 41.0125,61.0125 C 42.25,59.15 44.225,58.625 46.35,58.65 c -0.475,1.375 -0.9875,2.7375 -1.5125,4.0875 -1.275,-0.5625 -2.55,-1.1375 -3.825,-1.725 z"
     id="path56" />
</svg>
