<?xml version="1.0" encoding="UTF-8" standalone="no"?>
<!-- Created with Inkscape (http://www.inkscape.org/) -->

<svg
   xmlns:dc="http://purl.org/dc/elements/1.1/"
   xmlns:cc="http://creativecommons.org/ns#"
   xmlns:rdf="http://www.w3.org/1999/02/22-rdf-syntax-ns#"
   xmlns:svg="http://www.w3.org/2000/svg"
   xmlns="http://www.w3.org/2000/svg"
   xmlns:xlink="http://www.w3.org/1999/xlink"
   xmlns:sodipodi="http://sodipodi.sourceforge.net/DTD/sodipodi-0.dtd"
   xmlns:inkscape="http://www.inkscape.org/namespaces/inkscape"
   height="22.26469mm"
   width="36.009624mm"
   viewBox="0 0 127.59315 78.890635"
   id="svg3368"
   version="1.1"
   inkscape:version="0.91 r13725"
   sodipodi:docname="sairdklogo.svg">
  <defs
     id="defs3374">
    <linearGradient
       inkscape:collect="always"
       xlink:href="#linearGradient3557"
       id="linearGradient3563"
       x1="40.678711"
       y1="81.476562"
       x2="40.97168"
       y2="143.78125"
       gradientUnits="userSpaceOnUse" />
    <linearGradient
       inkscape:collect="always"
       id="linearGradient3557">
      <stop
         style="stop-color:#ffc107;stop-opacity:1"
         offset="0"
         id="stop3559" />
      <stop
         style="stop-color:#893b00;stop-opacity:1"
         offset="1"
         id="stop3561" />
    </linearGradient>
    <filter
       inkscape:collect="always"
       style="color-interpolation-filters:sRGB"
       id="filter3443">
      <feBlend
         inkscape:collect="always"
         mode="lighten"
         in2="BackgroundImage"
         id="feBlend3445" />
    </filter>
    <linearGradient
       inkscape:collect="always"
       xlink:href="#linearGradient3549"
       id="linearGradient3555"
       x1="56.207031"
       y1="81.671875"
       x2="55.726562"
       y2="138.50781"
       gradientUnits="userSpaceOnUse" />
    <linearGradient
       inkscape:collect="always"
       id="linearGradient3549">
      <stop
         style="stop-color:#ffc107;stop-opacity:1"
         offset="0"
         id="stop3551" />
      <stop
         style="stop-color:#c25705;stop-opacity:1"
         offset="1"
         id="stop3553" />
    </linearGradient>
    <filter
       inkscape:collect="always"
       style="color-interpolation-filters:sRGB"
       id="filter3434">
      <feBlend
         inkscape:collect="always"
         mode="darken"
         in2="BackgroundImage"
         id="feBlend3436" />
    </filter>
    <linearGradient
       inkscape:collect="always"
       xlink:href="#linearGradient3541"
       id="linearGradient3547"
       x1="54.960938"
       y1="81.28125"
       x2="54.042969"
       y2="151.00781"
       gradientUnits="userSpaceOnUse" />
    <linearGradient
       inkscape:collect="always"
       id="linearGradient3541">
      <stop
         style="stop-color:#ffc107;stop-opacity:1"
         offset="0"
         id="stop3543" />
      <stop
         style="stop-color:#ff6f00;stop-opacity:1"
         offset="1"
         id="stop3545" />
    </linearGradient>
    <linearGradient
       inkscape:collect="always"
       xlink:href="#linearGradient3549"
       id="linearGradient3548"
       gradientUnits="userSpaceOnUse"
       x1="56.207031"
       y1="81.671875"
       x2="55.726562"
       y2="138.50781" />
    <linearGradient
       inkscape:collect="always"
       xlink:href="#linearGradient3541"
       id="linearGradient3554"
       gradientUnits="userSpaceOnUse"
       x1="54.960938"
       y1="81.28125"
       x2="54.042969"
       y2="151.00781" />
    <linearGradient
       inkscape:collect="always"
       xlink:href="#linearGradient3557"
       id="linearGradient3560"
       gradientUnits="userSpaceOnUse"
       x1="40.678711"
       y1="81.476562"
       x2="40.97168"
       y2="143.78125" />
  </defs>
  <sodipodi:namedview
     pagecolor="#ffffff"
     bordercolor="#666666"
     borderopacity="1"
     objecttolerance="10"
     gridtolerance="10"
     guidetolerance="10"
     inkscape:pageopacity="0"
     inkscape:pageshadow="2"
     inkscape:window-width="1543"
     inkscape:window-height="876"
     id="namedview3372"
     showgrid="false"
     fit-margin-top="0"
     fit-margin-left="0"
     fit-margin-right="0"
     fit-margin-bottom="0"
     borderlayer="false"
     showborder="true"
     inkscape:showpageshadow="true"
     inkscape:zoom="3.5881182"
     inkscape:cx="78.374394"
     inkscape:cy="49.530988"
     inkscape:window-x="57"
     inkscape:window-y="24"
     inkscape:window-maximized="1"
     inkscape:current-layer="layer1" />
  <metadata
     id="metadata3370">
    <rdf:RDF>
      <cc:Work
         rdf:about="">
        <dc:format>image/svg+xml</dc:format>
        <dc:type
           rdf:resource="http://purl.org/dc/dcmitype/StillImage" />
        <dc:title></dc:title>
      </cc:Work>
    </rdf:RDF>
  </metadata>
  <g
     transform="translate(-18.641492,-151.43322)"
     style="font-style:normal;font-weight:normal;font-size:40px;line-height:125%;font-family:sans-serif;letter-spacing:5px;word-spacing:0px;display:inline;fill:#2b2b2b;fill-opacity:1;stroke:none;stroke-width:1px;stroke-linecap:butt;stroke-linejoin:miter;stroke-opacity:1;enable-background:new"
     id="flowRoot3195-3">
    <path
       d="m 135.64795,170.72493 -2.31934,0 0,6.27442 -4.28466,0 0,-17.77344 6.99462,0 q 3.16163,0 4.94385,1.40381 1.78223,1.40381 1.78223,3.96729 0,1.85546 -0.75684,3.07617 -0.74463,1.2207 -2.34375,1.97754 l 3.71094,7.16552 0,0.18311 -4.58984,0 -3.13721,-6.27442 z m -2.31934,-3.3081 2.70996,0 q 1.22071,0 1.83106,-0.63477 0.62256,-0.64697 0.62256,-1.79443 0,-1.14746 -0.62256,-1.79443 -0.62256,-0.65918 -1.83106,-0.65918 l -2.70996,0 0,4.88281 z"
       style="font-style:normal;font-variant:normal;font-weight:900;font-stretch:normal;font-size:25px;font-family:Roboto;-inkscape-font-specification:'Roboto Heavy';letter-spacing:5px;fill:#2b2b2b;fill-opacity:1"
       id="path3606" />
  </g>
  <g
     transform="translate(-18.630172,-128.36033)"
     style="font-style:normal;font-weight:normal;font-size:40px;line-height:125%;font-family:sans-serif;letter-spacing:5px;word-spacing:0px;display:inline;fill:#2b2b2b;fill-opacity:1;stroke:none;stroke-width:1px;stroke-linecap:butt;stroke-linejoin:miter;stroke-opacity:1;enable-background:new"
     id="flowRoot3195-3-0">
    <path
       d="m 129.04395,176.99935 0,-17.77344 5.72509,0 q 2.35596,0 4.23584,1.07422 1.87989,1.06201 2.92969,3.01514 1.06201,1.94091 1.07422,4.35791 l 0,0.81787 q 0,2.4414 -1.0376,4.38232 -1.02539,1.92871 -2.90527,3.02735 -1.86768,1.08642 -4.17481,1.09863 l -5.84716,0 z m 4.28466,-14.46533 0,11.16943 1.48926,0 q 1.84326,0 2.83203,-1.30615 0.98877,-1.31836 0.98877,-3.90625 l 0,-0.76904 q 0,-2.57569 -0.98877,-3.88184 -0.98877,-1.30615 -2.88086,-1.30615 l -1.44043,0 z"
       style="font-style:normal;font-variant:normal;font-weight:900;font-stretch:normal;font-size:25px;font-family:Roboto;-inkscape-font-specification:'Roboto Heavy';letter-spacing:5px;fill:#2b2b2b;fill-opacity:1"
       id="path3603" />
  </g>
  <g
     transform="translate(-18.585172,-105.234)"
     style="font-style:normal;font-weight:normal;font-size:40px;line-height:125%;font-family:sans-serif;letter-spacing:5px;word-spacing:0px;display:inline;fill:#2b2b2b;fill-opacity:1;stroke:none;stroke-width:1px;stroke-linecap:butt;stroke-linejoin:miter;stroke-opacity:1;enable-background:new"
     id="flowRoot3195-3-0-1">
    <path
       d="m 135.08643,170.38314 -1.75782,1.92871 0,4.6875 -4.28466,0 0,-17.77344 4.28466,0 0,7.83692 1.48926,-2.25831 3.83301,-5.57861 5.29785,0 -6.00586,7.86133 6.00586,9.91211 -5.07812,0 -3.78418,-6.61621 z"
       style="font-style:normal;font-variant:normal;font-weight:900;font-stretch:normal;font-size:25px;font-family:Roboto;-inkscape-font-specification:'Roboto Heavy';letter-spacing:5px;fill:#2b2b2b;fill-opacity:1"
       id="path3600" />
  </g>
  <g
     transform="translate(61.461868,-72.95427)"
     style="font-style:normal;font-weight:normal;font-size:90px;line-height:125%;font-family:sans-serif;letter-spacing:0px;word-spacing:0px;display:inline;fill:url(#linearGradient3563);fill-opacity:1;stroke:none;stroke-width:1px;stroke-linecap:butt;stroke-linejoin:miter;stroke-opacity:1;filter:url(#filter3443);enable-background:new"
     id="flowRoot3325-9">
    <path
       d="m 47.832031,144.71875 -15.380859,0 0,-63.984375 15.380859,0 0,63.984375 z"
       style="font-style:normal;font-variant:normal;font-weight:900;font-stretch:normal;font-size:90px;font-family:Roboto;-inkscape-font-specification:'Roboto Heavy';letter-spacing:0px;fill:url(#linearGradient3560);fill-opacity:1"
       id="path3597" />
  </g>
  <g
     inkscape:groupmode="layer"
     id="layer1"
     inkscape:label="Layer 1">
    <g
       transform="translate(12.938882,-72.97688)"
       style="font-style:normal;font-weight:normal;font-size:90px;line-height:125%;font-family:sans-serif;letter-spacing:0px;word-spacing:0px;display:inline;fill:url(#linearGradient3555);fill-opacity:1;stroke:none;stroke-width:1px;stroke-linecap:butt;stroke-linejoin:miter;stroke-opacity:1;filter:url(#filter3434);enable-background:new"
       id="flowRoot3325-1">
      <path
         d="m 67.739258,132.76562 -21.137696,0 -3.691406,11.95313 -16.479492,0 23.466797,-63.984375 14.501953,0 23.642578,63.984375 -16.567383,0 -3.735351,-11.95313 z m -17.446289,-11.90917 13.754883,0 -6.899415,-22.192388 -6.855468,22.192388 z"
         style="font-style:normal;font-variant:normal;font-weight:900;font-stretch:normal;font-size:90px;font-family:Roboto;-inkscape-font-specification:'Roboto Heavy';letter-spacing:0px;fill:url(#linearGradient3548);fill-opacity:1"
         id="path3594" />
    </g>
    <g
       transform="translate(-26.559658,-73.28125)"
       style="font-style:normal;font-weight:normal;font-size:90px;line-height:125%;font-family:sans-serif;letter-spacing:0px;word-spacing:0px;display:inline;fill:url(#linearGradient3547);fill-opacity:1;stroke:none;stroke-width:1px;stroke-linecap:butt;stroke-linejoin:miter;stroke-opacity:1;filter:url(#filter3443);enable-background:new"
       id="flowRoot3325">
      <path
         d="m 64.399414,127.71191 q 0,-3.38378 -2.416992,-5.27343 -2.373047,-1.88965 -8.393555,-3.91114 -6.020508,-2.02148 -9.84375,-3.91113 -12.436523,-6.1084 -12.436523,-16.787108 0,-5.317383 3.076172,-9.360352 3.120117,-4.086914 8.789062,-6.328125 5.668945,-2.285156 12.744141,-2.285156 6.899414,0 12.348633,2.460937 5.493164,2.460938 8.52539,7.03125 3.032227,4.526367 3.032227,10.371094 l -15.38086,0 q 0,-3.911133 -2.416992,-6.064453 -2.373047,-2.15332 -6.459961,-2.15332 -4.130859,0 -6.547851,1.845703 -2.373047,1.801757 -2.373047,4.614257 0,2.460943 2.636719,4.482423 2.636718,1.97754 9.27246,4.13086 6.635743,2.10937 10.898438,4.57031 10.371094,5.97656 10.371094,16.47949 0,8.39356 -6.328125,13.1836 -6.328125,4.79004 -17.358399,4.79004 -7.77832,0 -14.106445,-2.76856 -6.28418,-2.8125 -9.492188,-7.64648 Q 29.375,130.30469 29.375,123.97656 l 15.46875,0 q 0,5.1416 2.636719,7.60254 2.680664,2.41699 8.657226,2.41699 3.823242,0 6.020508,-1.62597 2.241211,-1.66992 2.241211,-4.65821 z"
         style="font-style:normal;font-variant:normal;font-weight:900;font-stretch:normal;font-size:90px;font-family:Roboto;-inkscape-font-specification:'Roboto Heavy';letter-spacing:0px;fill:url(#linearGradient3554);fill-opacity:1"
         id="path3591" />
    </g>
  </g>
</svg>
