<?xml version="1.0" encoding="UTF-8" standalone="no"?>
<svg width="923" xmlns="http://www.w3.org/2000/svg" height="802">
 <g stroke-width=".5" fill-rule="evenodd">
  <path d="m0 401v-401h923v802h-923v-401zm741.8 296.8l-0.3 0.2-0.3 0.2-0.2 0.3h-2l-0.2-0.3-0.3-0.2-0.5-1q-0.5-1-3.5-7.5l-3-6.5-0.3-0.2-0.2-0.3h-3l-1.5 0.5q-1.5 0.5-7 4.2-5.5 3.8-5.5 4.8t-1.2 1.5l-1.3 0.5-0.3 0.2-0.2 0.3h-3l-0.2-0.3-0.3-0.2-0.3-0.2q-0.2-0.3-4-7.6-3.7-7.2-28.4-7.4-24.8-0.3-54.3 3.2t-45 8.5-29.5 12.3q-14 7.2-14 8.2t-1 1.2q-1 0.3-10.2 9.6-9.3 9.2-13.3 17.2t-4.5 18.5 1 16.5l1.5 6v2l-0.3 0.2-0.2 0.3h-4q-4 0-15.5-1t-31.5-4.5-66.5-15.5l-46.5-12-2-0.5-2-0.5-1.5-0.3-1.5-0.2 0.2 1 0.3 1 0.3 0.2 0.2 0.3 0.2 0.3 0.3 0.2 0.5 1 0.5 1 0.3 0.2 0.2 0.3 0.2 0.3 0.3 0.2 6 9.5q6 9.5 6.5 10.5l0.5 1 0.5 1 0.5 1 0.3 2 0.2 2-2.5 0.2-2.5 0.3h-1l-14.5-0.5q-14.5-0.5-22.5-1.5t-27-5.5-35.5-10.5-35.5-16.3q-19-10.2-19-11.2t-1.5-1.2q-1.5-0.3-11-7.8t-13-11.2q-3.5-3.8-4.5-3.8t-1-1-1-1-1-1-1-1-8.2-8.5q-7.3-8.5-18-23.7-10.8-15.3-21-35-10.3-19.8-18.3-39.3t-14-44l-6-24.5-0.5-1-0.5-1-0.3-0.2-0.2-0.3-0.2-0.3-0.3-0.2-0.3-0.2-0.2-0.3-0.2-0.3-0.3-0.2-0.3 0.2-0.2 0.3-0.2 0.3-0.3 0.2-0.3 0.2-0.2 0.3-0.2 0.3-0.3 0.2-0.3 0.2-0.2 0.3-0.2 0.3-0.3 0.2-0.3 0.2-0.2 0.3-0.2 0.3-0.3 0.2-0.3 0.2-0.2 0.3-1.5 2.3q-1.5 2.2-2.5 2.2t-8.8 10.5q-7.7 10.5-8 10.7l-0.2 0.3-0.2 0.3-0.3 0.2-0.3 0.2-0.2 0.3-0.2 0.3-0.3 0.2-0.5 1-0.5 1-0.3 0.2-0.2 0.3-1 0.3-1 0.2-0.2-1-0.3-1-0.5-1-0.5-1-0.3-0.2-0.2-0.3-0.2-0.3-0.3-0.2-0.5-1.5q-0.5-1.5-2-4.5t-6-18.5-6.5-35.5-1-36.5 4-34 11.5-43 17.2-40.7q8.8-15.3 11.3-20 2.5-4.8 3.5-4.8t2-3 2-3 3.2-4l2.3-4 0.3-0.2 0.2-0.3 0.2-0.3 0.3-0.2 0.3-0.2 0.2-0.3 0.2-0.3 0.3-0.2 0.5-1 0.5-1 0.3-0.2 0.2-0.3-0.2-0.3-0.3-0.2-0.3-0.2-0.2-0.3h-4l-1 0.5-1 0.5-6 1.5q-6 1.5-6.2 1.8l-0.3 0.2-0.3 0.2-0.2 0.3-2 0.5-2 0.5-1 0.3-1 0.2 0.2-1.5 0.3-1.5 0.5-1 0.5-1 0.5-1 0.5-1 0.3-0.2 0.2-0.3 0.2-0.3q0.3-0.2 5.6-9.7 5.2-9.5 6.2-9.5t1.2-1.5q0.3-1.5 9.6-11.7 9.2-10.3 24.7-23.8t34.3-25.2q18.7-11.8 34-18l15.2-6.3 0.2-0.3 0.3-0.2-1-4q-1-4-6.5-14t-11-24.5-8.5-30-2.5-27 3-24 9-26.5 9.8-17.8q3.2-3.7 5.7-4.7t10.5 0 77.5 37 85 43.5 19 8.5 44 2 56.5 2.5 46.5 9 50 15.5 41.3 20.3q21.7 12.2 47.2 29.2t29.8 20q4.2 3 4.2 4t1 1 1 1 3.8 4.5q3.7 3.5 10.2 12.5t13 21.5 9.2 19.3q2.8 6.7 9.8 12.7t11 8.3q4 2.2 4 3.2t3 2 3 2 9.5 7.8q9.5 6.7 27.5 21 18 14.2 18 15.2t1 1 1 1 1 1 1 1 11.2 11.5q11.3 10.5 13.6 13.5 2.2 3 6 6.5 3.7 3.5 17.2 20.5t19 25.5 6.5 13 0.5 16.5-2 18.5-7.8 16.3q-6.2 9.7-12.4 16.4-6.3 6.8-9.8 23.8t-8 22.5-4.5 14-2 11.5-1.5 6 5.5 15 6 16.5 0.5 14-3 18.5-8.5 18.5-7.3 11.5q-1.2 2-9.7 8.2-8.5 6.3-13.5 8.3t-11 3-14 0.5-17.8-3.2q-9.7-2.8-14.4-5-4.8-2.3-8.8-1.8t-9.5 5-5.7 4.8z" stroke="#fff" fill="#fff"/>
  <path d="m741.8 697.8l-0.3 0.2-0.3 0.2-0.2 0.3h-2l-0.2-0.3-0.3-0.2-0.5-1q-0.5-1-3.5-7.5l-3-6.5-0.3-0.2-0.2-0.3h-3l-1.5 0.5q-1.5 0.5-7 4.2-5.5 3.8-5.5 4.8t-1.2 1.5l-1.3 0.5-0.3 0.2-0.2 0.3h-3l-0.2-0.3-0.3-0.2-0.3-0.2q-0.2-0.3-4-7.6-3.7-7.2-28.4-7.4-24.8-0.3-54.3 3.2t-45 8.5-29.5 12.3q-14 7.2-14 8.2t-1 1.2q-1 0.3-10.2 9.6-9.3 9.2-13.3 17.2t-4.5 18.5 1 16.5l1.5 6v2l-0.3 0.2-0.2 0.3h-4q-4 0-15.5-1t-31.5-4.5-66.5-15.5l-46.5-12-2-0.5-2-0.5-1.5-0.3-1.5-0.2 0.2 1 0.3 1 0.3 0.2 0.2 0.3 0.2 0.3 0.3 0.2 0.5 1 0.5 1 0.3 0.2 0.2 0.3 0.2 0.3 0.3 0.2 6 9.5q6 9.5 6.5 10.5l0.5 1 0.5 1 0.5 1 0.3 2 0.2 2-2.5 0.2-2.5 0.3h-1l-14.5-0.5q-14.5-0.5-22.5-1.5t-27-5.5-35.5-10.5-35.5-16.3q-19-10.2-19-11.2t-1.5-1.2q-1.5-0.3-11-7.8t-13-11.2q-3.5-3.8-4.5-3.8t-1-1-1-1-1-1-1-1-8.2-8.5q-7.3-8.5-18-23.7-10.8-15.3-21-35-10.3-19.8-18.3-39.3t-14-44l-6-24.5-0.5-1-0.5-1-0.3-0.2-0.2-0.3-0.2-0.3-0.3-0.2-0.3-0.2-0.2-0.3-0.2-0.3-0.3-0.2-0.3 0.2-0.2 0.3-0.2 0.3-0.3 0.2-0.3 0.2-0.2 0.3-0.2 0.3-0.3 0.2-0.3 0.2-0.2 0.3-0.2 0.3-0.3 0.2-0.3 0.2-0.2 0.3-0.2 0.3-0.3 0.2-0.3 0.2-0.2 0.3-1.5 2.3q-1.5 2.2-2.5 2.2t-8.8 10.5q-7.7 10.5-8 10.7l-0.2 0.3-0.2 0.3-0.3 0.2-0.3 0.2-0.2 0.3-0.2 0.3-0.3 0.2-0.5 1-0.5 1-0.3 0.2-0.2 0.3-1 0.3-1 0.2-0.2-1-0.3-1-0.5-1-0.5-1-0.3-0.2-0.2-0.3-0.2-0.3-0.3-0.2-0.5-1.5q-0.5-1.5-2-4.5t-6-18.5-6.5-35.5-1-36.5 4-34 11.5-43 17.2-40.7q8.8-15.3 11.3-20 2.5-4.8 3.5-4.8t2-3 2-3 3.2-4l2.3-4 0.3-0.2 0.2-0.3 0.2-0.3 0.3-0.2 0.3-0.2 0.2-0.3 0.2-0.3 0.3-0.2 0.5-1 0.5-1 0.3-0.2 0.2-0.3-0.2-0.3-0.3-0.2-0.3-0.2-0.2-0.3h-4l-1 0.5-1 0.5-6 1.5q-6 1.5-6.2 1.8l-0.3 0.2-0.3 0.2-0.2 0.3-2 0.5-2 0.5-1 0.3-1 0.2 0.2-1.5 0.3-1.5 0.5-1 0.5-1 0.5-1 0.5-1 0.3-0.2 0.2-0.3 0.2-0.3q0.3-0.2 5.6-9.7 5.2-9.5 6.2-9.5t1.2-1.5q0.3-1.5 9.6-11.7 9.2-10.3 24.7-23.8t34.3-25.2q18.7-11.8 34-18l15.2-6.3 0.2-0.3 0.3-0.2-1-4q-1-4-6.5-14t-11-24.5-8.5-30-2.5-27 3-24 9-26.5 9.8-17.8q3.2-3.7 5.7-4.7t10.5 0 77.5 37 85 43.5 19 8.5 44 2 56.5 2.5 46.5 9 50 15.5 41.3 20.3q21.7 12.2 47.2 29.2t29.8 20q4.2 3 4.2 4t1 1 1 1 3.8 4.5q3.7 3.5 10.2 12.5t13 21.5 9.2 19.3q2.8 6.7 9.8 12.7t11 8.3q4 2.2 4 3.2t3 2 3 2 9.5 7.8q9.5 6.7 27.5 21 18 14.2 18 15.2t1 1 1 1 1 1 1 1 11.2 11.5q11.3 10.5 13.6 13.5 2.2 3 6 6.5 3.7 3.5 17.2 20.5t19 25.5 6.5 13 0.5 16.5-2 18.5-7.8 16.3q-6.2 9.7-12.4 16.4-6.3 6.8-9.8 23.8t-8 22.5-4.5 14-2 11.5-1.5 6 5.5 15 6 16.5 0.5 14-3 18.5-8.5 18.5-7.3 11.5q-1.2 2-9.7 8.2-8.5 6.3-13.5 8.3t-11 3-14 0.5-17.8-3.2q-9.7-2.8-14.4-5-4.8-2.3-8.8-1.8t-9.5 5-5.7 4.8zm-476.8-588.8v1h2v5l-1 0.2-1 0.3-1.5 0.5q-1.5 0.5-3 0.5t-6 1.3q-4.5 1.2-4.5 2.2t-2 1-2 1.5 1 1.7q1 0.3 0 0.8l-1 0.5-0.2 0.3-0.3 0.2-0.3 0.2-0.2 0.3-1.5 0.3-1.5 0.2 0.2 2 0.3 2 0.3 1 0.2 1 5.5 0.8q5.5 0.7 6.5 1.2t3 1l2 0.5 1 0.3 1 0.2 0.2 1 0.3 1 0.3 0.2 0.2 0.3-1 0.5-1 0.5-0.2 0.3-0.3 0.2-0.3 0.2-0.2 0.3-0.2 0.3q-0.3 0.2-0.6 1.2-0.2 1-1.7 1.2-1.5 0.3-2 1.6-0.5 1.2-1.5 1.2h-1l-0.2 1-0.3 1-0.3 0.2-0.2 0.3-0.2 0.3-0.3 0.2-0.3 0.2-0.2 0.3-1 0.5-1 0.5 12 1.5q12 1.5 13.5 1.8l1.5 0.2-0.2 2.5q-0.3 2.5-1.3 6t-1.3 7.5l-0.2 4 1.5-0.2 1.5-0.3 0.2-0.3 0.3-0.2 0.3-0.2 0.2-0.3 6.5-2.5q6.5-2.5 9-2l2.5 0.5 0.2 0.3 0.3 0.2 0.5 1.5q0.5 1.5 0.5 2.5t0 9.5 2.5 15 1.2 7.5q-1.2 1-1.2 2t-1.8 1.5q-1.7 0.5-9 3.7-7.2 3.3-14.2 3.8t-15.5-3.8q-8.5-4.2-8.5-5.2t-1-1-1-1-1-1-3.8-5.5q-2.7-5.5-3.7-16t-11.7-17.5q-10.8-7-10.8-8t-1-1-1-1-1-1-1.8-1.5q-0.7-1.5-8.7-12.5t-14-25.5-6-30 1.3-19.3q1.2-3.7 2.7-6.2t5.5-5.5 8-1.7q4 1.2 4 2.2t11 9.2q11 8.3 14.5 12 3.5 3.8 7.5 7 4 3.3 7.5 7 3.5 3.8 4.5 3.8t1.2 1q0.3 1 1.6 1.5 1.2 0.5 3.7 4t3.5 3.5 1 1 1 1 1 1 1 1 1 1zm244.2 80.8l0.3 0.2 0.5 1.5 0.5 1.5 0.3 0.2 0.2 0.3 0.2 0.3 0.3 0.2 0.3 0.2 0.2 0.3 0.2 0.3 0.3 0.2 0.5 1 0.5 1 0.5 1 0.5 1 0.5-2.5 0.5-2.5 3.3-5.2q3.2-5.3 7.2-7.3t26-7.5 35.5-5 17.5 1.5 6 1.5l2 0.5 1 0.5 1 0.5 1 0.5 1 0.5 1 0.5 1 0.5 0.2 0.3 0.3 0.2v1l-0.3 0.2-0.2 0.3-2 0.5-2 0.5-2.5 0.5q-2.5 0.5-11.5 2t-13.5 4-6.3 7.8l-1.7 5.2h-0.5l1 4.8q1 4.7 2 5 1 0.2 1-0.8t9.5-5.8q9.5-4.7 13-5.7t5.5-1.3l2-0.2v-0.5h8.5q8.5 0 19.5 5t13 5.3q2 0.2 2 1.2t3.8 3q3.7 2 6.4 5 2.8 3 3.8 3t3.8 6q2.7 6 2.4 8.8-0.2 2.7-4.7 1.7t-8.3-2.7q-3.7-1.8-4-4.8-0.2-3-6.2-1.2-6 1.7-8.2 3.4-2.3 1.8-3.3 4.3t-0.5 7.5 3.2 2.8q2.8-2.3 6.3-3.3t13.7 0.3q10.3 1.2 16.8 5.2t8 5.5 0.5-3.5-2.5-8-1.8-8q-0.2-5 5.3-2t5.5 4 1 1 1 1 1 1 1 1 2.2 3q2.3 2 4.6 6.5 2.2 4.5 3.2 4.5t6.5 16.8q5.5 16.7 12.5 23.7t8 7.3q1 0.2 1 1.2t4.8 3.5q4.7 2.5 21.2 13.5t26.8 19.2q10.2 8.3 11.2 8.6 1 0.2 1 1.2t1 1 1 1 7.2 7q7.3 6 9.6 7.5 2.2 1.5 2.2 2.5t1 1 1 1 1 1 1 1 1 1 1 1 1 1 1 1 1 1 1 1 1 1 1 1 3.8 4.5q3.7 3.5 8.4 9.5 4.8 6 5.8 6t7.2 8.5q6.3 8.5 6.6 9.5 0.2 1 1.2 1t6.5 9.2q5.5 9.3 5.7 9.6l0.3 0.2v8l-0.3 0.2-0.2 0.3h-4q-4 0-7-1t-14.5-6.5-17.5-6-11 2.5-7.8 9.3l-2.7 6.2-0.3 0.2-0.2 0.3h-3l-0.2-0.3-0.3-0.2-0.3-0.2-0.2-0.3-1.5-0.5q-1.5-0.5-5.7-3.8l-4.3-3.2-0.3-0.2-0.2-0.3-0.2-0.3-0.3-0.2-0.3-0.2-0.2-0.3-0.2-0.3-0.3-0.2-0.3-0.2-0.2-0.3-0.2-0.3-0.3-0.2-0.3-0.2-0.2-0.3-0.2-0.3-0.3-0.2-0.5-1-0.5-1v6l0.3 0.2 0.2 0.3 0.2 0.3 0.3 0.2 0.5 1.5 0.5 1.5 0.7 1.5q0.8 1.5 1.8 1.5t4.8 4.5q3.7 4.5 4 6.5 0.2 2 1.2 2t2.5 2.8q1.5 2.7 2 4 0.5 1.2 5.7 4.7 5.3 3.5 5.6 4.5 0.2 1 6.2 3.2 6 2.3 7 3.3t1.2 1.3l0.3 0.2 0.5 1 0.5 1 0.5 1 0.5 1 0.3 0.2 0.2 0.3 0.2 0.3 0.3 0.2 0.3 0.2 0.2 0.3 0.2 0.3 0.3 0.2 0.3 1.5 0.2 1.5 3.8 5q3.7 5 4.7 6t1 11v10l-0.3 0.2-0.2 0.3h-1.5q-1.5 0-3.5-1.5l-2-1.5-1-0.3-1-0.2 0.2 1.5 0.3 1.5 0.5 1.5q0.5 1.5 0.5 7.5t-1 9-4.5 8.5-13.8 8.7q-10.2 3.3-27.7 5.8t-33.5 1.5l-16-1-0.2-0.3-0.3-0.2-0.3-0.2-0.2-0.3-1-0.5-1-0.5 0.2-0.3 0.3-0.2 0.3-0.2 0.2-0.3 1-0.5 1-0.5 1.5-0.5 1.5-0.5 0.2-0.3 0.3-0.2 0.3-0.2 0.2-0.3 3.5-1q3.5-1 17-2t18.3-2.7q4.7-1.8 5-2l0.2-0.3 2-0.5 2-0.5 0.2-0.3 0.3-0.2 0.3-0.2 0.2-0.3 1.5-0.3 1.5-0.2-0.2-1-0.3-1-0.3 0.2-0.2 0.3-3.5 0.5-3.5 0.5-1.5 0.5q-1.5 0.5-9 0t-15.5 0.5-19 5.5-16 5.5-5.5 0.3q-0.5-0.8-3-0.8t-2.5-1-3-2.2l-3-1.3-0.2-0.3-0.3-0.2-0.3-0.2-0.2-0.3-0.2-0.3-0.3-0.2-0.3-0.2-0.2-0.3-1-0.5-1-0.5-0.2-0.3-0.3-0.2v-2l0.3-0.2 0.2-0.3 2-0.5 2-0.5 0.2-0.3 0.3-0.2 0.3-0.2 0.2-0.3 4-1q4-1 6.8 1.7 2.7 2.8 16.4-4.4 13.8-7.3 19.8-9.3t8-2.5l2-0.5 1.5-0.5 1.5-0.5 3-0.5 3-0.5h-12.5q-12.5 0-17.5 1t-27.5 8.5-28.5 5.8q-6-1.8-6-2.8t-1-1-4.2-4l-3.3-4-0.3-0.2-0.2-0.3-0.2-0.3-0.3-0.2-0.5-1.5-0.5-1.5-0.3-0.2-0.2-0.3-0.2-0.3-0.3-0.2-0.3-0.2-0.2-0.3 0.2-0.3 0.3-0.2 0.3-0.2 0.2-0.3 1.5-0.5 1.5-0.5 0.2-0.3 0.3-0.2 0.3-0.2 0.2-0.3 7-1.5q7-1.5 8-1.2 1 0.2 2.5 3.4 1.5 3.3 16.5-3.2t24.5-8 11-2l1.5-0.5 4.5-0.5 4.5-0.5-3-0.5-3-0.5-4-0.5q-4-0.5-20 0.5t-37.5 5.3l-21.5 4.2v0.5l-3 0.3-3 0.2-0.2-1-0.3-1-0.3-0.2-0.2-0.3-0.2-0.3-0.3-0.2-0.5-2.5-0.5-2.5-0.5-1-0.5-1 0.5-4.5q0.5-4.5 3.8-6.3 3.2-1.7 9.2-2.4 6-0.8 8 3 2 3.7 4.5 3.7t9.5-3 20.5-6 14.5-3.5l1-0.5 4-0.5 4-0.5-3.5-0.5-3.5-0.5-1-0.5-1-0.5h-5.5q-5.5 0-18 0.5t-31 3l-18.5 2.5-0.2 0.3-0.3 0.2-0.3-0.2-0.2-0.3-1-0.3-1-0.2 0.2-18.5q0.3-18.5 2.3-25.5t6.7-16.5q4.8-9.5 5.8-9.5t1.2-1l0.3-1 0.3-0.2 0.2-0.3 0.2-0.3 0.3-0.2 0.3-0.2 0.2-0.3 0.2-0.3 0.3-0.2 0.3-0.2 0.2-0.3 0.2-0.3 0.3-0.2 0.3-0.2 0.2-0.3 0.2-0.3 0.3-0.2 0.3-0.2 0.2-0.3 0.2-0.3 0.3-0.2 0.3-1 0.2-1-1 0.2-1 0.3-0.2 0.3-0.3 0.2-0.3 0.2-0.2 0.3-1 0.5-1 0.5-0.2 0.3-0.3 0.2-0.3 0.2-0.2 0.3-1 0.5q-1 0.5-5.5 4t-9.5 4.5-13.5-0.5-19.5-6.8q-11-5.2-11-6.2t-6.5-4-6.5-4-1.5-1.8q-1.5-0.7-4.3-6-2.7-5.2-3.2-9.2t2.2-9.5q2.8-5.5 3.8-5.5t1-1 2-1.2q2-0.3 8-0.8t13 2.2l7 2.8v2h2l0.2-1 0.3-1 0.5-1.5 0.5-1.5 0.3-0.2 0.2-0.3 0.2-0.3 0.3-0.2 0.3-0.2 0.2-0.3 0.2-0.3 0.3-0.2v-1l-0.3-0.2-0.2-0.3-3-0.5q-3-0.5-8.5-1.5t-16-4-20.5-8.3q-10-5.2-10-6.2t-1-1-1-1-1-1-1-1-1-1-3.2-5.5q-2.3-5.5-2.8-15l-0.5-9.5 0.3-0.2 0.2-0.3 2.5-0.5 2.5-0.5h6l0.2 0.3 0.3 0.2 1.5 5.5q1.5 5.5 6.5 12.5t10.7 10.2q5.8 3.3 15.3 4.8t17.3-1.2q7.7-2.8 11.4-4.6 3.8-1.7 7.6-0.4 3.7 1.2 9.4 5 5.8 3.7 6.8 4.2l1 0.5 0.2 0.3 0.3 0.2 0.3 0.2 0.2 0.3 1.5 0.5 1.5 0.5 0.2 0.3 0.3 0.2 0.3 0.2 0.2 0.3 0.2 0.3 0.3 0.2 0.3-7q0.2-7 6.2-7.2l6-0.3-0.2-0.3-0.3-0.2-0.3-0.2-0.2-0.3v-0.5l-0.2-0.5-0.3-0.5-0.3-0.2-0.2-0.3-0.2-0.3-0.3-0.2-0.3-0.2-0.2-0.3-0.2-0.3-0.3-0.2-0.3-0.2-0.2-0.3-0.2-0.3-0.3-0.2-0.3-0.2-0.2-0.3-0.2-0.3q-0.3-0.2-4.8-5.2t-19.8-12.2q-15.2-7.3-34.2-12.8t-46-5.8l-27-0.2 0.2-2q0.3-2 2.6-8.8l2.2-6.7 0.2-0.3 0.3-0.2 0.3-0.2 0.2-0.3-1.5-0.5q-1.5-0.5-6.5-1.5t-8.8-3.7q-3.7-2.8-5.2-5.8t-2-11.5 0.5-12.5 4-11l3-7 0.5-1 0.5-1 0.5-1 0.5-1 0.3-0.2 0.2-0.3h-3l-0.2 0.3-0.3 0.2-0.3 0.2-0.2 0.3-2 0.5-2 0.5-0.2 0.3-0.3 0.2-0.3 0.2q-0.2 0.3-2.2 0.8t-9.2 5.2l-7.3 4.8-0.3 0.2-0.2 0.3-0.2 0.3-0.3 0.2-0.3 0.2-0.2 0.3-1 0.5-1 0.5-0.2 0.3-0.3 0.2h-0.5l-0.2 1q-0.3 1-4 5.2-3.8 4.3-6.8 10l-3 5.8-0.2 0.5q-0.3 0.5-0.6 0.5h-0.2l0.8 5q0.7 5 2.4 8.2 1.8 3.3 6.8 6.3t12 5 11.5 2.5l4.5 0.5 1 0.3 1 0.2-0.2 1-0.3 1-0.3 0.2-0.2 0.3-1 0.5-1 0.5-0.2 0.3-0.3 0.2-0.3 0.2-0.2 0.3-9 4.3q-9 4.2-9 5.2t-2.8 2.5q-2.7 1.5-7.7 8.5t-6.5 12.5-1 13 1.8 10.3q1.2 2.7 1.4 3l0.3 0.2 0.3 1.5 0.2 1.5h2v3h3l0.2-2.5 0.3-2.5 4.5-8q4.5-8 9.2-12.8 4.8-4.7 10.3-7.7t8-4 6-1.5l3.5-0.5 1-0.5 1-0.5h2l0.2 0.3 0.3 0.2v3l-0.3 0.2-0.2 0.3-0.2 0.3-0.3 0.2-0.3 0.2-0.2 0.3-0.2 0.3-0.3 0.2-0.3 0.2-0.2 0.3-0.2 0.3-0.3 0.2-8.5 16q-8.5 16-10.5 22t-1.5 16.5 3 18 8.8 16.5q6.2 9 15.2 15.2 9 6.3 9.2 6.6l0.3 0.2 0.3 0.2 0.2 0.3 1.5 0.5 1.5 0.5 0.2 0.3 0.3 0.2 0.3 0.2 0.2 0.3 0.2 0.3 0.3 0.2 0.3 0.2 0.2 0.3 0.2 0.3 0.3 0.2v1l-0.3 0.2-0.2 0.3h-7q-7 0-12-1t-16-5-23.5-11.5-21.3-14.8q-8.7-7.2-16.4-17-7.8-9.7-10.6-18-2.7-8.2-3.2-23.2t2.5-25 9-22l6-12 0.5-1 0.5-1 0.5-1 0.5-1 0.5-1 0.5-1 0.3-0.2 0.2-0.3 0.2-0.3 0.3-0.2 0.3-0.2 0.2-0.3h-2l-1 0.5-1 0.5-0.2 0.3-0.3 0.2-0.3 0.2-0.2 0.3-0.2 0.3-0.3 0.2-0.3 0.2-0.2 0.3-1 0.5-1 0.5-0.2 0.3-0.3 0.2-9.5 9.5q-9.5 9.5-17 21t-12.5 24-8 30.5-2 34 6 35 13.5 36 14.2 26q5.8 9 6.8 9t5.5 6.5 5.5 6.5 1 1 1 1 1 1 1 1 1 1 1 1 1 1 1 1 1 1 1 1.2l1 0.3 0.2 0.3 0.3 0.2 0.3 0.2 0.2 0.3 0.2 0.3 0.3 0.2 0.3 0.2 0.2 0.3 0.2 0.3 0.3 0.2 0.3 0.2 0.2 0.3 1 0.5 1 0.5v0.5h0.2q0.3 0 0.6 0.5l0.2 0.5h0.5l0.3 0.2 0.2 0.3 1 0.5 1 0.5 0.2 0.3 0.3 0.2 0.3 0.2 0.2 0.3 0.2 0.3 0.3 0.2 0.3 0.2 0.2 0.3 0.2 0.3 0.3 0.2 0.3 1 0.2 1-5-0.2q-5-0.3-17-3.3t-29.5-10.5-27.5-14-23-19.5-20-24-12.2-24.7q-5.3-13.8-8.3-27.3t-3.5-39.5 1.5-37.5 7.3-28.5q5.2-17 6.2-17t1.2-2q0.3-2 5.3-12.5t19.7-32.5q14.8-22 15.8-22t3.2-3l2.3-3 0.3-0.2 0.2-0.3 0.2-0.3 0.3-0.2 0.5-1 0.5-1 0.3-0.2 0.2-0.3 0.2-0.3 0.3-0.2 0.3-0.2 0.2-0.3 0.2-0.3 0.3-0.2 0.3-0.2 0.2-0.3 0.2-0.3 0.3-0.2 0.3-0.2 0.2-0.3-1-0.3-1-0.2-0.5 0.2-0.5 0.3-1 0.5-1 0.5-1 0.5-1 0.5-0.2 0.3-0.3 0.2-0.3 0.2-0.2 0.3-0.2 0.3-0.3 0.2-3.3 2q-3.2 2-3.2 3t-8.2 8q-8.3 7-18.8 19.5t-20 27.5-16.5 31-11.5 31-6.5 27-1.5 37.5 3.5 40.5 9.3 31.2q6.2 16.3 12.2 27.3t10 16.7q4 5.8 5 5.8t10.5 10.2q9.5 10.3 28.5 23.8t21 14.5 3 1.5l1 0.5 0.2 0.3 0.3 0.2 0.3 0.2 0.2 0.3 0.2 0.3 0.3 0.2 0.3 0.2 0.2 0.3 0.2 0.3 0.3 0.2 0.3 0.2 0.2 0.3-0.2 0.3-0.3 0.2-0.3 0.2-0.2 0.3-0.2 0.3-0.3 0.2-0.3 0.2-0.2 0.3-0.2 0.3-0.3 0.2-0.3 0.2-0.2 0.3-1 0.5q-1 0.5-6 3l-5 2.5-0.2 0.3-0.3 0.2-0.3 0.2-0.2 0.3-1 0.5-1 0.5-0.2 0.3-0.3 0.2-0.3 0.2-0.2 0.3-0.2 0.3-0.3 0.2-0.3 0.2-0.2 0.3 2.5 0.5 2.5 0.5 1 0.5 1 0.5 2.5 1q2.5 1 6.5 0.5t21.5-10 32-15 15.5-6l1-0.5 2-0.5 2-0.5 2-0.3 2-0.2-0.2 1.5-0.3 1.5-0.3 0.2-0.2 0.3-1.5 0.5-1.5 0.5-0.2 0.3-0.3 0.2-0.3 0.2-0.2 0.3-1.5 0.5q-1.5 0.5-14 8l-12.5 7.5-0.2 0.3-0.3 0.2-0.3 0.2-0.2 0.3-1 0.5-1 0.5-1 0.5-1 0.5-0.2 0.3-0.3 0.2-0.3 0.2-0.2 0.3 21-0.5q21-0.5 36-3.5t20-5 5.2-2.3l0.3-0.2 0.3-0.2 0.2-0.3 1-0.3 1-0.2-0.2-1-0.3-1-4-8.5q-4-8.5-4-13.5t15.7-13.2q15.8-8.3 31.8-14.3t25.5-8.5 11.5-3l2-0.5 3.5-0.3 3.5-0.2v2l-1 0.2-1 0.3-1.5 0.5-1.5 0.5-1 0.5-1 0.5-1.5 0.5q-1.5 0.5-14 5.5t-27.5 12.5l-15 7.5-1 0.5-1 0.5-0.2 0.3-0.3 0.2v2l0.5 1 0.5 1 0.3 0.2 0.2 0.3 0.2 0.3 0.3 0.2 0.3 0.2 0.2 0.3 6.5 5.5q6.5 5.5 7.5 6l1 0.5 1 0.3 1 0.2-0.2 1-0.3 1-0.3 0.2-0.2 0.3-0.2 0.3-0.3 0.2-0.3 1-0.2 1-1.5 0.2q-1.5 0.3-17.5 10.8t-30 21l-14 10.5-0.2 0.3-0.3 0.2-0.3 0.2-0.2 0.3-1 0.5-1 0.5-0.2 0.3-0.3 0.2-0.3 0.2-0.2 0.3-0.2 0.3-0.3 0.2-0.3 0.2-0.2 0.3 1.5 0.5 1.5 0.5 0.2 0.3 0.3 0.2 0.3 0.2 0.2 0.3 2.5 0.5 2.5 0.5 0.2 0.3 0.3 0.2 0.3 0.2 0.2 0.3 2.2-0.3q2.3-0.2 9-7 6.8-6.7 12.8-11 6-4.2 6-5.2t29.5-20.2q29.5-19.3 45-27.3t17-8.5l1.5-0.5 1-0.5 1-0.5 1-0.5 1-0.5 2-0.3 2-0.2v2l-1 0.2-1 0.3-0.2 0.3-0.3 0.2-0.3 0.2-0.2 0.3-0.2 0.3-0.3 0.2-0.3 0.2-0.2 0.3-1 0.5-1 0.5-0.2 0.3-0.3 0.2-0.3 0.2q-0.2 0.3-5.7 3.8t-22.5 16l-17 12.5-0.2 0.3-0.3 0.2-0.3 0.2-0.2 0.3-0.2 0.3-0.3 0.2-0.3 0.2-0.2 0.3 0.2 0.3 0.3 0.2 0.3 0.2 0.2 0.3 0.2 0.3 0.3 0.2 0.3 0.2 0.2 0.3 0.2 0.3 0.3 0.2 0.3 0.2 0.2 0.3 0.2 0.3 0.3 0.2 5.7 3.8q5.8 3.7 7.3 4.2l1.5 0.5 0.2 0.3 0.3 0.2v3l-0.3 0.2-0.2 0.3-0.2 0.3-0.3 0.2-0.3 0.2-0.2 0.3-0.2 0.3-0.3 0.2-0.3 0.2-0.2 0.3-1 0.5q-1 0.5-7 5t-11 8.2q-5 3.8-5 4.8t-1 1-1 1-4.5 4.2q-4.5 3.3-19 5.8t-43.5 3-46.5-2-40-8.5-40.5-13.3l-18-7.2-2-0.2-2-0.3-0.2-0.3-0.3-0.2-0.3-0.2-0.2-0.3-1.5-0.5-1.5-0.5-0.2-0.3-0.3-0.2-0.3-0.2q-0.2-0.3-2.2-0.6-2-0.2-2-1.2t-2-1-2-1-4-2.8q-4-1.7-17.5-10.7t-24.7-20.3q-11.3-11.2-22-25.4-10.8-14.3-13.3-19-2.5-4.8-3.5-4.8t-1-2-1-2-1-2-1-2-1.5-1.8q-0.5-1.7-7-16.2t-10.7-28.2q-4.3-13.8-6.8-28.8t-3-45 2.5-47.5 7-30.5 12.3-30.5q8.2-17.5 9.2-17.5t2-3 2-3 4.5-5.5 4.5-5.5 1-1 1-1 1-1 1-1 1-1 1-1 1-1 1-1 1-1 1.8-2q1.7-1 8.4-5.5 6.8-4.5 6.8-5.5t3.2-2.5q3.3-1.5 2-5.5-1.2-4-2.2-4t-1.8-5l-0.7-5 0.3-0.2 0.2-0.3 0.2-0.3 0.3-0.2 0.3-0.2 0.2-0.3 17-4q17-4 23-5t10-1.3l4-0.2-0.2-1-0.3-1-0.3-0.2-0.2-0.3-0.2-0.3-0.3-0.2-0.3-1q-0.2-1-1.2-1t-3.8-4.5q-2.7-4.5-2.2-10t0.8-6.5q0.2-1 1.2-1t5.5-5.2q4.5-5.3 11-8.3t20.5-6 34-4 39 0.5 20.5 3.2q1.5 1.8-4.7 3.3-6.3 1.5-16.8 7t-13.5 9.5-2.5 9.5 3.2 10.7q2.8 5.3 4.3 6.3t4.3-7.3q2.7-8.2 7-11.4 4.2-3.3 16.2-7.3t23.5-6 30-1.5 22 1.8q3.5 1.2 3 3-0.5 1.7-19.7 5-19.3 3.2-28.6 6.4-9.2 3.3-12.4 6-3.3 2.8-3.3 10.3t0.3 7.7q0.2 0.3 0.4 0.6zm-279.4 46.7l0.2 0.5 10.8 6q10.7 6 1.2 18.5t-19 32.5-14.5 34.5-7 22.5-2.5 14-0.8 13.5l-0.2 7.5 1-0.2 1-0.3 0.2-0.3 0.3-0.2 0.3-0.2 0.2-0.3 1-0.5 1-0.5 0.2-0.3q0.3-0.2 5.6-3.4l5.2-3.3 1-0.5 1-0.5h3l0.2 0.3 0.3 0.2v5l-1.5 10q-1.5 10-1.5 46t3 55 3.5 20 1 3l0.5 2 0.3 0.2 0.2 0.3 0.2 0.3 0.3 0.2 0.3 1 0.2 1 1-0.2 1-0.3 0.2-0.3 0.3-0.2 0.3-0.2 0.2-0.3 0.2-0.3q0.3-0.2 3.8-3.7l3.5-3.5 0.3-0.2 0.2-0.3 0.2-0.3 0.3-0.2 0.3-0.2 0.2-0.3h2l0.2 0.3 0.3 0.2 0.5 1 0.5 1 0.5 1 0.5 1 5.7 13.8q5.8 13.7 15 30.4 9.3 16.8 10 18.3 0.8 1.5 1.8 1.5t7.8 9.5q6.7 9.5 22 24.7 15.2 15.3 23 21.6 7.7 6.2 8 6.4l0.2 0.3 1 0.5 1 0.5 0.2 0.3 0.3 0.2 0.3 0.2 0.2 0.3 0.2 0.3 0.3 0.2 0.3 0.2 0.2 0.3h1l0.2-0.3 0.3-0.2 0.5-4q0.5-4 2-8.5l1.5-4.5 0.5-1.5 0.5-1.5 0.3-0.2 0.2-0.3h2l0.2 0.3 0.3 0.2 0.3 0.2 0.2 0.3 17.5 10.5q17.5 10.5 38.5 19t24.5 9.5 6.5 1.5l3 0.5 1 0.3 1 0.2 0.2-5.5q0.3-5.5 0.8-6.5l0.5-1 0.3-0.2 0.2-0.3 20 2q20 2 51 1.5t61-4 36-3.8l6-0.2-0.2 1-0.3 1-0.3 0.2-0.2 0.3-2.5 0.5-2.5 0.5-1.5 0.5q-1.5 0.5-29 9.5t-49.5 20.3q-22 11.2-22 12.2t-1.5 1.2q-1.5 0.3-9.5 6.6-8 6.2-8 7.2t-1 1-1 1-1 1-1 1-1 1-1 1-6.5 2.5l-6.5 1.5v0.5l-2.5 0.5-2.5 0.5-0.2 0.3-0.3 0.2-0.3 0.2-0.2 0.3-1.5 0.5q-1.5 0.5-15 3t-30 3.5-34.5-1.5-42.5-10-38-13.5l-13.5-6-1-0.5-1-0.5-1-0.5-1-0.5-1-0.3-1-0.2 0.2 2.5 0.3 2.5 0.3 0.2 0.2 0.3 0.2 0.3 0.3 0.2 2.3 8q2.2 8 3.2 8t2 4.5 2 4.5 1.5 2.2q0.5 2.3 0.7 2.6l0.3 0.2 0.3 1.5 0.2 1.5h2l-0.2 1.5-0.3 1.5-0.3 0.2-0.2 0.3h-1l-5-0.5q-5-0.5-12.5-2.5t-20.5-7.5-17.5-7.2q-4.5-1.8-4.5-2.8t-9-5-9-5-3-2-3-2-2.5-2.2q-2.5-1.3-4.5-3.6-2-2.2-5-3.2t-3-2-7-6.2q-7-5.3-16.8-16-9.7-10.8-14-16.8-4.2-6-5.2-6t-1.2-1.5q-0.3-1.5-4-6.7-3.8-5.3-14.3-25.8t-17.7-43.2q-7.3-22.8-10.3-41.8t-2.3-42l0.8-23h-5v2l-4.5 1.8q-4.5 1.7-18 10.2t-14.5 8.8l-1 0.2v2h-5l0.2-15.5q0.3-15.5 2.3-28.5t7-30.5 10-28 6.3-14q1.2-3.5 2.2-3.5t1-2 1-2 1-2 1-2 2-3.5 2-3.5 1.2-1.5q0.3-1.5 7.8-14t15.5-22.5 19.7-19.8l11.8-9.7 0.2-0.3 0.3-0.2 0.3-0.2 0.2-0.3 1-0.5 1-0.5 0.2-0.3 0.3-0.2 0.3-0.2 0.2-0.3-0.2-0.3-0.3-0.2-0.3-0.2-0.2-0.3-0.2-0.3-0.3-0.2-0.3-0.2-0.2-0.3-0.2-0.3-0.3-0.2-0.3-0.2-0.2-0.3-12-0.5q-12-0.5-16-0.8l-4-0.2 0.2-1.5 0.3-1.5 0.3-0.2 0.2-0.3 0.2-0.3 0.3-0.2 0.3-0.2 0.2-0.3 0.2-0.3 0.3-0.2 0.3-0.2 0.2-0.3 0.2-0.3 0.3-0.2 0.3-0.2 0.2-0.3 0.2-0.3 0.3-0.2 10.3-7.8q10.2-7.7 23.7-16.2t21.5-12.5 10-4.3q2-0.2 2-1.2t12-4.8q12-3.7 15.2 1.6 3.3 5.2 6.3 8.2t3.3 3.5zm410.2 76.7l1 0.3 0.2 0.3 0.3 0.2 0.3 0.2 0.2 0.3 0.2 0.3 0.3 0.2 0.3 0.2 0.2 0.3 0.2 0.3 0.3 0.2 0.3 0.2 0.2 0.3 0.2 0.3 0.3 0.2v5l-0.3 1-0.2 1h-2v2l-1 0.2q-1 0.3-3.5 1.8t-10.5 2-11.5-1-7.7-5.8q-4.3-4.2-4.3-11.7t5.7-7.3q5.8 0.3 7 4 1.3 3.8 4 6.6 2.8 2.7 8.3 3.2t8-2.2q2.5-2.8 3.5-2.6zm-72 101.3v-1.5l10.5 3.2q10.5 3.3 20.3 9 9.7 5.8 16.7 12.8t10 15 2.5 11.5-3.8 7.7q-3.2 4.3-7.2 6.3t-15 2h-11l-1-0.5-1-0.5-0.2-0.3-0.3-0.2v2l0.5 1 0.5 1 0.3 0.2 0.2 0.3 0.2 0.3 0.3 0.2 0.5 1 0.5 1 5.7 7.2q5.8 7.3 6.8 7.8l1 0.5 0.2 0.3 0.3 0.2 0.3 0.2 0.2 0.3 0.2 0.3 0.3 0.2 0.3 0.2 0.2 0.3 0.2 0.3 0.3 0.2 0.3 0.2 0.2 0.3 0.2 0.3 0.3 0.2 0.3 0.2 0.2 0.3 0.2 0.3 0.3 0.2v1l-0.3 0.2-0.2 0.3h-6.5q-6.5 0-12-2t-11.3-6.3q-5.7-4.2-12.2-11.2t-11-16-5.8-17l-1.2-8 1.5 0.2 1.5 0.3 0.2 0.3 0.3 0.2 0.3 0.2 0.2 0.3 0.2 0.3 0.3 0.2 0.3 0.2 0.2 0.3 0.2 0.3 0.3 0.2 0.3 0.2 0.2 0.3 1 0.5q1 0.5 2.5 1.5t9 4 14 3.5 8.5-0.5 3.2-2.7q1.3-1.8 1.8-6.3t-2.8-11q-3.2-6.5-4.2-6.5t-1.2-1q-0.3-1-7.6-7.2l-7.2-6.3-1-0.3q-1-0.2-1-1.2t-1-1-1-1.5zm304.2 77.7l-0.2 0.3-0.2 0.3-0.3 0.2-0.3 0.2-0.2 0.3h-7l-1-0.3-1-0.2v-1q0-1-1-1t-2.2-4q-1.3-4-2.3-9t-3.7-8.8q-2.8-3.7-12.3-7.4l-9.5-3.8-0.2-1.5-0.3-1.5v-4l1.5-3q1.5-3 2.8-4.2 1.2-1.3 4.7-0.8t14 5 19.3 6.2q8.7 1.8 8.7 10.3t-2.7 16.5q-2.8 8-3.8 8t-1.8 1.5q-0.7 1.5-1 1.7zm-105.2 173.3h-1l-0.2 0.3-0.3 0.2-0.3 0.2q-0.2 0.3-1.2 0.6-1 0.2-1 1.2t-1 1-1 1-1 1-1 1-1 1-1.5 1.2l-0.5 1.3-0.2 0.3-0.3 0.2-0.3 0.2-0.2 0.3h-3l-0.2-0.3-0.3-0.2-0.3-0.2-0.2-0.3-0.2-0.3-0.3-0.2-0.5-1-0.5-1-0.5-1q-0.5-1-1.5-3t-1.7-8l-0.8-6-1 0.2-1 0.3-1 0.5-1 0.5-2 0.5q-2 0.5-8.8 4.8l-6.7 4.2-0.3 0.2-0.2 0.3-0.2 0.3-0.3 0.2-0.3 0.2-0.2 0.3-0.2 0.3-0.3 0.2-0.3 0.2-0.2 0.3h-2l-0.2-0.3-0.3-0.2-0.5-3q-0.5-3-1-10l-0.5-7 0.3-1.5 0.2-1.5-1 0.2-1 0.3-1.5 0.5-1.5 0.5-0.2 0.3-0.3 0.2-0.3 0.2-0.2 0.3-1 0.5q-1 0.5-5.2 4.8l-4.3 4.2-0.3 0.2-0.2 0.3-0.2 0.3-0.3 0.2-0.3 0.2-0.2 0.3-0.2 0.3-0.3 0.2-0.3 0.2-0.2 0.3-0.2 0.3-0.3 0.2-0.3 0.2-0.2 0.3-0.2 0.3-0.3 0.2-0.3-0.2-0.2-0.3-0.2-0.3-0.3-0.2-0.3-0.2-0.2-0.3-0.2-0.3-0.3-0.2-0.3-0.2-0.2-0.3-0.2-0.3-0.3-0.2-0.3-11-0.2-11-2 0.2-2 0.3-1 0.5-1 0.5-1.5 0.5q-1.5 0.5-9 4.5l-7.5 4-0.2 0.3-0.3 0.2-0.3 0.2-0.2 0.3-0.2 0.3-0.3 0.2-0.3 0.2-0.2 0.3-1.5 0.3-1.5 0.2 0.2-2.5 0.3-2.5 0.5-1 0.5-1 2.7-6.2q2.8-6.3 8.6-13.6 5.7-7.2 15.4-14.4 9.8-7.3 22.3-12.8t23.5-8 26-2.5 17 0.5l2 0.5h5l-0.2-0.3-0.3-0.2-0.3-0.2-0.2-0.3-0.2-0.3-0.3-0.2-0.3-0.2q-0.2-0.3-1.2-0.8t-1.8-2.2l-0.7-1.8 0.3-0.2 0.2-0.3 1-0.5q1-0.5 1.2-0.8l0.3-0.2 0.3-0.2 0.2-0.3 18.5-4q18.5-4 23.5-3.5t5.8 4.8q0.7 4.2 0.4 5.7-0.2 1.5-1.2 1.5t-1 1-1 1 0 4 2 4 6.2 8.5q5.3 8.5 7.3 16.5t1.5 15-2.2 12.2q-1.8 5.3-7.8 14.3t-13.5 15-12.5 7.5-15 1-16-3.5-9.5-7.5-4.5-4.5z" stroke="#000"/>
  <path d="m228 237.2l2-0.2 10.8 6q10.7 6 1.2 18.5t-19 32.5-14.5 34.5-7 22.5-2.5 14-0.8 13.5l-0.2 7.5 1-0.2 1-0.3 0.2-0.3 0.3-0.2 0.3-0.2 0.2-0.3 1-0.5 1-0.5 0.2-0.3q0.3-0.2 5.6-3.4l5.2-3.3 1-0.5 1-0.5h3l0.2 0.3 0.3 0.2v5l-1.5 10q-1.5 10-1.5 46t3 55 3.5 20 1 3l0.5 2 0.3 0.2 0.2 0.3 0.2 0.3 0.3 0.2 0.3 1 0.2 1 1-0.2 1-0.3 0.2-0.3 0.3-0.2 0.3-0.2 0.2-0.3 0.2-0.3q0.3-0.2 3.8-3.7l3.5-3.5 0.3-0.2 0.2-0.3 0.2-0.3 0.3-0.2 0.3-0.2 0.2-0.3h2l0.2 0.3 0.3 0.2 0.5 1 0.5 1 0.5 1 0.5 1 5.7 13.8q5.8 13.7 15 30.4 9.3 16.8 10 18.3 0.8 1.5 1.8 1.5t7.8 9.5q6.7 9.5 22 24.7 15.2 15.3 23 21.6 7.7 6.2 8 6.4l0.2 0.3 1 0.5 1 0.5 0.2 0.3 0.3 0.2 0.3 0.2 0.2 0.3 0.2 0.3 0.3 0.2 0.3 0.2 0.2 0.3h1l0.2-0.3 0.3-0.2 0.5-4q0.5-4 2-8.5l1.5-4.5 0.5-1.5 0.5-1.5 0.3-0.2 0.2-0.3h2l0.2 0.3 0.3 0.2 0.3 0.2 0.2 0.3 17.5 10.5q17.5 10.5 38.5 19t24.5 9.5 6.5 1.5l3 0.5 1 0.3 1 0.2 0.2-5.5q0.3-5.5 0.8-6.5l0.5-1 0.3-0.2 0.2-0.3 20 2q20 2 51 1.5t61-4 36-3.8l6-0.2-0.2 1-0.3 1-0.3 0.2-0.2 0.3-2.5 0.5-2.5 0.5-1.5 0.5q-1.5 0.5-29 9.5t-49.5 20.3q-22 11.2-22 12.2t-1.5 1.2q-1.5 0.3-9.5 6.6-8 6.2-8 7.2t-1 1-1 1-1 1-1 1-1 1-1 1-6.5 2.5l-6.5 1.5-15-0.2q-15-0.3-15.5-0.3t-19-2.5-32.5-6.5-38-14.5-48.5-25.2q-24.5-14.8-24.5-15.8t-13.5-10.5-13.5-10.5-1-1.2l-1-0.3h-3l-0.2 0.3-0.3 0.2-0.3 0.2-0.2 0.3-6.2 11.3q-6.3 11.2-6.8 12.2t-1 2.5l-0.5 1.5-0.3 0.2-0.2 0.3-0.2 0.3-0.3 0.2-0.3 0.2-0.2 0.3-0.2 0.3-0.3 0.2-0.3 0.2-0.2 0.3h-1l-1-0.5-1-0.5-0.2-0.3-0.3-0.2-0.3-0.2-0.2-0.3-0.2-0.3q-0.3-0.2-7.8-7.2t-18.2-20.2q-10.8-13.3-19.6-30-8.7-16.8-14.7-34.8t-8.5-32-4-24.5-1.5-45.5 1-44.5l1-9.5-0.3-0.2-0.2-0.3-0.2-0.3-0.3-0.2-0.3-0.2-0.2-0.3-1-0.5q-1-0.5-10-0.5t-15.5 1.5l-6.5 1.5-2.5 0.3-2.5 0.2 0.2-2 0.3-2 0.5-3q0.5-3 5-15.5t13.5-29.5 23-37 26-33.5l12-13.5 0.3-0.2 0.2-0.3 0.2-0.3 0.3-0.2 0.3-0.2 0.2-0.3 0.2-0.3 0.3-0.2 0.3-2 0.2-2-1.5-0.2-1.5-0.3-0.2-0.3-0.3-0.2-0.3-0.2-0.2-0.3-2-0.5q-2-0.5-8-1.5l-6-1-0.2-0.3-0.3-0.2-0.3-0.2-0.2-0.3 0.2-0.3 0.3-0.2 0.3-1 0.2-1 1-0.2 1-0.3 0.2-0.3 0.3-0.2 0.3-0.2 0.2-0.3 1-0.5 1-0.5 22.5-11q22.5-11 24.5-11.3z" stroke="#fbfcfa" fill="#fbfcfa"/>
  <g stroke="#fc4500" fill="#fc4500">
   <path d="m881.2 433.8l0.3 0.2v8l-0.3 0.2-0.2 0.3h-4q-4 0-7-1t-14.5-6.5-17.5-6-11 2.5-7.8 9.3l-2.7 6.2-0.3 0.2-0.2 0.3h-3l-0.2-0.3-0.3-0.2-0.3-0.2-0.2-0.3-1.5-0.5q-1.5-0.5-5.7-3.8l-4.3-3.2-0.3-0.2-0.2-0.3-0.2-0.3-0.3-0.2-0.3-0.2-0.2-0.3-0.2-0.3-0.3-0.2-0.3-0.2-0.2-0.3-0.2-0.3-0.3-0.2-0.3-0.2-0.2-0.3-0.2-0.3-0.3-0.2-0.5-1-0.5-1v6l0.3 0.2 0.2 0.3 0.2 0.3 0.3 0.2 0.5 1.5 0.5 1.5 0.7 1.5q0.8 1.5 1.8 1.5t4.8 4.5q3.7 4.5 4 6.5 0.2 2 1.2 2t2.5 2.8q1.5 2.7 2 4 0.5 1.2 5.7 4.7 5.3 3.5 5.6 4.5 0.2 1 6.2 3.2 6 2.3 7 3.3t1.2 1.3l0.3 0.2 0.5 1 0.5 1 0.5 1 0.5 1 0.3 0.2 0.2 0.3 0.2 0.3 0.3 0.2 0.3 0.2 0.2 0.3 0.2 0.3 0.3 0.2 0.3 1.5 0.2 1.5-0.5-0.2-0.5-0.3-0.2-0.3-0.3-0.2-0.3-0.2-0.2-0.3-3-0.5-3-0.5-1-0.5q-1-0.5-3-1t-11.5-6-17.5-13l-8-7.5-0.2-0.3-0.3-0.2-0.3-0.2-0.2-0.3-0.2-0.3-0.3-0.2-0.3-1-0.2-1h-2v-2h-2l0.2 1 0.3 1 0.5 2 0.5 2 0.3 0.2 0.2 0.3 0.2 0.3 0.3 0.2 4 7q4 7 4.3 7.2l0.2 0.3 0.2 0.3 0.3 0.2 0.5 1 0.5 1 0.3 0.2 0.2 0.3 0.2 0.3 0.3 0.2 0.3 0.2 0.2 0.3 0.2 0.3 0.3 0.2 0.3 0.2 0.2 0.3 0.2 0.3 0.3 0.2 0.3 0.2 0.2 0.3h-4l-0.2-0.3-0.3-0.2-0.3-0.2-0.2-0.3-2.5-0.5q-2.5-0.5-9.5-1t-9.5 1-5 5.2q-2.5 3.8-19.5 6.6-17 2.7-35.5 8-18.5 5.2-18.5 6.2t-2 1-2 1-3 0.8q-3-0.3-5.8-4-2.7-3.8-5-4l-2.2-0.3-1 0.5-1 0.5-0.2 0.3-0.3 0.2-0.3 0.2-0.2 0.3-0.2 0.3-0.3 0.2-0.3 0.2-0.2 0.3-0.2 0.3-0.3 0.2v10l0.3 0.2 0.2 0.3 0.2 0.3 0.3 0.2 0.5 1 0.5 1h0.5v0.5l-3 0.3-3 0.2-0.2-1-0.3-1-0.3-0.2-0.2-0.3-0.2-0.3-0.3-0.2-0.5-2.5-0.5-2.5-0.5-1-0.5-1 0.5-4.5q0.5-4.5 3.8-6.3 3.2-1.7 9.2-2.4 6-0.8 8 3 2 3.7 4.5 3.7t9.5-3 20.5-6 14.5-3.5l1-0.5 4-0.5 4-0.5-3.5-0.5-3.5-0.5-1-0.5-1-0.5h-5.5q-5.5 0-18 0.5t-31 3l-18.5 2.5-0.2 0.3-0.3 0.2-0.3-0.2-0.2-0.3-1-0.3-1-0.2 0.2-18.5q0.3-18.5 2.3-25.5t6.7-16.5q4.8-9.5 5.8-9.5t1.2-1l0.3-1 0.3-0.2 0.2-0.3 0.2-0.3 0.3-0.2 0.3-0.2 0.2-0.3 0.2-0.3 0.3-0.2 0.3-0.2 0.2-0.3 0.2-0.3 0.3-0.2 0.3-0.2 0.2-0.3 0.2-0.3 0.3-0.2 0.3-0.2 0.2-0.3 0.2-0.3 0.3-0.2 0.3-1 0.2-1-1 0.2-1 0.3-0.2 0.3-0.3 0.2-0.3 0.2-0.2 0.3-1 0.5-1 0.5-0.2 0.3-0.3 0.2-0.3 0.2-0.2 0.3-1 0.5q-1 0.5-5.5 4t-9.5 4.5-13.5-0.5-19.5-6.8q-11-5.2-11-6.2t-6.5-4-6.5-4-1.5-1.8q-1.5-0.7-4.3-6-2.7-5.2-3.2-9.2t2.2-9.5q2.8-5.5 3.8-5.5t1-1 2-1.2q2-0.3 8-0.8t13 2.2l7 2.8v2h2l0.2-1 0.3-1 0.5-1.5 0.5-1.5 0.3-0.2 0.2-0.3 0.2-0.3 0.3-0.2 0.3-0.2 0.2-0.3 0.2-0.3 0.3-0.2v-1l-0.3-0.2-0.2-0.3-3-0.5q-3-0.5-8.5-1.5t-16-4-20.5-8.3q-10-5.2-10-6.2t-1-1-1-1-1-1-1-1-1-1-3.2-5.5q-2.3-5.5-2.8-15l-0.5-9.5 0.3-0.2 0.2-0.3 2.5-0.5 2.5-0.5h6l0.2 0.3 0.3 0.2 1.5 5.5q1.5 5.5 6.5 12.5t10.7 10.2q5.8 3.3 15.3 4.8t17.3-1.2q7.7-2.8 11.4-4.6 3.8-1.7 7.6-0.4 3.7 1.2 9.4 5 5.8 3.7 6.8 4.2l1 0.5 0.2 0.3 0.3 0.2 0.3 0.2 0.2 0.3 1.5 0.5 1.5 0.5 0.2 0.3 0.3 0.2 0.3 0.2 0.2 0.3 0.2 0.3 0.3 0.2 0.3-7q0.2-7 6.2-7.2l6-0.3-0.2-0.3-0.3-0.2-0.3-0.2-0.2-0.3v-0.5l1 0.2 1 0.3 0.2 0.3 0.3 0.2 0.3 0.2 0.2 0.3 1 0.3 1 0.2-0.2-4-0.3-4-0.5-2q-0.5-2-1.5-6t-5.3-10.2q-4.2-6.3-11.7-10-7.5-3.8-10.5-9l-3-5.3-0.2-0.3-0.3-0.2h-0.5l-0.2-1-0.3-1-0.5-1q-0.5-1-9.8-13.5-9.2-12.5-10.2-12.5t-1-1-4.5-3.8q-4.5-2.7-13.5-7.2l-9-4.5h-4l-0.2 0.3-0.3 0.2-0.3 0.2-0.2 0.3-1 0.5-1 0.5-0.2 0.3-0.3 0.2v8l0.3 0.2 0.2 0.3 5.5 5.5q5.5 5.5 7 5.8 1.5 0.2 1.5 1.2t9 3.8q9 2.7 16.8 8 7.7 5.2 8 5.4l0.2 0.3 0.2 0.3 0.3 0.2 0.5 1.5 0.5 1.5 0.3 0.2 0.2 0.3 0.2 0.3 0.3 0.2 0.3 2 0.2 2h-1l-0.2-0.5-0.3-0.5-0.3-0.2-0.2-0.3-0.2-0.3-0.3-0.2-0.3-1-0.2-1h-2v-1q0-1-1.5-1t-1.5-1-4.2-2.5q-4.3-1.5-14-4.3-9.8-2.7-14.8-1.4-5 1.2-5 2.2t-1 1-2 3-12 2l-11-1-0.2-1-0.3-1v-4l0.5-2 0.5-2 0.3-0.2 0.2-0.3 2-2q2-2 7-2.3l5-0.2-0.2-1.5-0.3-1.5-0.3-0.2-0.2-0.3-0.2-0.3-0.3-0.2-0.3-1-0.2-1h-2l-0.2-1q-0.3-1-5-4.8-4.8-3.7-12.8-7.7l-8-4-0.2-0.3-0.3-0.2-0.3-0.2-0.2-0.3-1-0.5-1-0.5-1-0.3-1-0.2v-2l1-0.2 1-0.3 0.2-0.3 0.3-0.2 0.3-0.2 0.2-0.3 0.2-0.3 0.3-0.2 0.3-0.2 0.2-0.3h12l1.5 0.3 1.5 0.2-0.2-1.5-0.3-1.5-0.3-1-0.2-1h-2v-2l-1-0.2q-1-0.3-5.5-3.8l-4.5-3.5-1-0.5-1-0.5-1-0.5-1-0.5-1-0.3-1-0.2-0.5-0.2-0.5-0.3 3.5-0.5 3.5-0.5 1-0.5 1-0.5h11.5q11.5 0 20-8.5t11.5-10.5 4.5-2.5l1.5-0.5 0.2-0.3 0.3-0.2 0.3-1q0.2-1-2.3-1h-2.5v-0.5h8.5q8.5 0 19.5 5t13 5.3q2 0.2 2 1.2t3.8 3q3.7 2 6.4 5 2.8 3 3.8 3t3.8 6q2.7 6 2.4 8.8-0.2 2.7-4.7 1.7t-8.3-2.7q-3.7-1.8-4-4.8-0.2-3-6.2-1.2-6 1.7-8.2 3.4-2.3 1.8-3.3 4.3t-0.5 7.5 3.2 2.8q2.8-2.3 6.3-3.3t13.7 0.3q10.3 1.2 16.8 5.2t8 5.5 0.5-3.5-2.5-8-1.8-8q-0.2-5 5.3-2t5.5 4 1 1 1 1 1 1 1 1 2.2 3q2.3 2 4.6 6.5 2.2 4.5 3.2 4.5t6.5 16.8q5.5 16.7 12.5 23.7t8 7.3q1 0.2 1 1.2t4.8 3.5q4.7 2.5 21.2 13.5t26.8 19.2q10.2 8.3 11.2 8.6 1 0.2 1 1.2t1 1 1 1 7.2 7q7.3 6 9.6 7.5 2.2 1.5 2.2 2.5t1 1 1 1 1 1 1 1 1 1 1 1 1 1 1 1 1 1 1 1 1 1 1 1 3.8 4.5q3.7 3.5 8.4 9.5 4.8 6 5.8 6t7.2 8.5q6.3 8.5 6.6 9.5 0.2 1 1.2 1t6.5 9.2q5.5 9.3 5.7 9.6zm-170-126l0.3 0.2 0.3 0.2 0.2 0.3 0.2 0.3 0.3 0.2 0.3 0.2 0.2 0.3 0.2 0.3 0.3 0.2 0.3 1 0.2 1-3-0.2-3-0.3-2-0.5q-2-0.5-8-3t-9.2-5.8l-3.3-3.2-0.3-0.2-0.2-0.3-0.2-0.3-0.3-0.2-0.3-4.5q-0.2-4.5 3.3-4.3 3.5 0.3 6.5 2 3 1.8 3 2.8t1 1 1 1 1 1 1 1 5 5.2q5 4.3 5.2 4.6zm64.6 99.4l0.2 0.3 0.2 0.3 0.3 0.2 0.3 0.2 0.2 0.3 0.2 0.3 0.3 0.2 0.3 0.2 0.2 0.3 0.2 0.3 0.3 0.2 0.5 1 0.5 1 0.3 0.2 0.2 0.3 0.2 0.3 0.3 0.2 0.3 1 0.2 1-1-0.2-1-0.3-0.2-0.3-0.3-0.2-0.3-0.2-0.2-0.3-2-0.5-2-0.5-0.2-0.3-0.3-0.2-0.3-0.2-0.2-0.3-7-4.7q-7-4.8-7-5.8t-14.5-12.8q-14.5-11.7-22.7-22-8.3-10.2-8.6-13.7-0.2-3.5 2.6-2 2.7 1.5 31.2 29t28.8 27.7z"/>
   <path d="m509.2 189.8l0.3 0.2 0.5 1.5 0.5 1.5 0.3 0.2 0.2 0.3 0.2 0.3 0.3 0.2 0.3 0.2 0.2 0.3 0.2 0.3 0.3 0.2 0.5 1 0.5 1 0.5 1 0.5 1 0.5-2.5 0.5-2.5 3.3-5.2q3.2-5.3 7.2-7.3t26-7.5 35.5-5 17.5 1.5 6 1.5l2 0.5 1 0.5 1 0.5 1 0.5 1 0.5 1 0.5 1 0.5 0.2 0.3 0.3 0.2v1l-0.3 0.2-0.2 0.3-2 0.5-2 0.5-2.5 0.5q-2.5 0.5-11.5 2t-13.5 4-6.3 7.8l-1.7 5.2h-0.5l-0.2-1q-0.3-1-0.6-1.2-0.2-0.3-11.7 2.2t-19.3 6.2l-7.7 3.8-0.3 0.2-0.2 0.3-0.2 0.3-0.3 0.2-0.3 0.2-0.2 0.3-0.2 0.3-0.3 0.2-0.3 0.2-0.2 0.3-1.5 0.3-1.5 0.2 0.2-4.5q0.3-4.5 1.8-7.5l1.5-3 0.3-0.2 0.2-0.3 0.2-0.3 0.3-0.2 0.3-0.2 0.2-0.3 0.2-0.3 0.3-0.2 0.5-1 0.5-1v-1l-0.3-0.2-0.2-0.3-0.2-0.3-0.3-0.2-0.3 0.2-0.2 0.3-1.5 0.5-1.5 0.5-0.2 0.3-0.3 0.2-0.3 0.2-0.2 0.3-1 0.5-1 0.5-1 0.5q-1 0.5-5.5 3.2-4.5 2.8-4.5 3.8t-1 1-1 1-1.2 1.5q-1.3 0.5-4.8 7.5t-4 14.5l-0.5 7.5 0.3 0.2 0.2 0.3 0.5 0.3 0.5 0.2-0.2 1q-0.3 1-0.6 1.2-0.2 0.3-5.4 7-5.3 6.8-6 10.3l-0.8 3.5h-2l0.2-1 0.3-1v-1l-2.7-3.2q-2.8-3.3-9.8-5.8t-16.5-2-15.3 3.8q-5.7 3.2-10.7 8.7t-15.5 21.5-19 35.5-11.5 30.5-4 18-0.5 28.5 3 33 9.2 25.7q6.8 14.3 14.8 25.8t24 27.5 29 25 14 9.5l1 0.5 0.2 0.3 0.3 0.2 0.3 0.2 0.2 0.3 1.5 0.5 1.5 0.5 0.2 0.3 0.3 0.2 0.3 0.2 0.2 0.3 0.2 0.3q0.3 0.2 0.6-0.8l0.2-1h2v2l1 0.2 1 0.3 0.2 0.3 0.3 0.2 0.3 0.2 0.2 0.3 0.2 0.3 0.3 0.2 0.3 0.2 0.2 0.3 0.2 0.3 0.3 0.2 0.3 1 0.2 1-5-0.2q-5-0.3-17-3.3t-29.5-10.5-27.5-14-23-19.5-20-24-12.2-24.7q-5.3-13.8-8.3-27.3t-3.5-39.5 1.5-37.5 7.3-28.5q5.2-17 6.2-17t1.2-2q0.3-2 5.3-12.5t19.7-32.5q14.8-22 15.8-22t3.2-3l2.3-3 0.3-0.2 0.2-0.3 0.2-0.3 0.3-0.2 0.5-1 0.5-1 0.3-0.2 0.2-0.3 0.2-0.3 0.3-0.2 0.3-0.2 0.2-0.3 0.2-0.3 0.3-0.2 0.3-0.2 0.2-0.3 0.2-0.3 0.3-0.2 0.3-0.2 0.2-0.3-1-0.3-1-0.2 5-3.2q5-3.3 15.5-7.3t13.5-4.5l3-0.5 1-0.5 1-0.5 0.2-0.3 0.3-0.2 0.3-0.2 0.2-0.3 1-0.3 1-0.2v-2l-21 0.2q-21 0.3-35.5 4.3t-28.5 11.5-21.8 13.8q-7.7 6.2-15.7 14.7t-16.5 21-16 28-12 29.5-7.5 27.5-3 44 3 44 8.7 30.7q5.8 17.3 15.3 35.8t21.5 36 22.5 30.8q10.5 13.2 11.5 13.2t2 1.8q1 1.7 2 2 1 0.2 3.2 3.2 2.3 3 2.6 3.2l0.2 0.3 0.2 0.3 0.3 0.2 0.3 0.2 0.2 0.3 0.2 0.3 0.3 0.2 0.3 0.2 0.2 0.3 0.2 0.3 0.3 0.2 0.3 0.2 0.2 0.3 0.2 0.3 0.3 0.2 0.3 0.2 0.2 0.3 0.2 0.3 0.3 0.2 0.3 0.2 0.2 0.3 0.2 0.3 0.3 0.2 0.3 0.5 0.2 0.5-2-0.2-2-0.3-0.2-0.3-0.3-0.2-0.3-0.2-0.2-0.3-1.5-0.5-1.5-0.5-0.2-0.3-0.3-0.2-0.3-0.2q-0.2-0.3-2.2-0.6-2-0.2-2-1.2t-2-1-2-1-4-2.8q-4-1.7-17.5-10.7t-24.7-20.3q-11.3-11.2-22-25.4-10.8-14.3-13.3-19-2.5-4.8-3.5-4.8t-1-2-1-2-1-2-1-2-1.5-1.8q-0.5-1.7-7-16.2t-10.7-28.2q-4.3-13.8-6.8-28.8t-3-45 2.5-47.5 7-30.5 12.3-30.5q8.2-17.5 9.2-17.5t2-3 2-3 4.5-5.5 4.5-5.5 1-1 1-1 1-1 1-1 1-1 1-1 1-1 1-1 1-1 1.8-2q1.7-1 8.4-5.5 6.8-4.5 6.8-5.5t3.2-2.5q3.3-1.5 2-5.5-1.2-4-2.2-4t-1.8-5l-0.7-5 0.3-0.2 0.2-0.3 0.2-0.3 0.3-0.2 0.3-0.2 0.2-0.3 17-4q17-4 23-5t10-1.3l4-0.2-0.2-1-0.3-1-0.3-0.2-0.2-0.3-0.2-0.3-0.3-0.2-0.3-1q-0.2-1-1.2-1t-3.8-4.5q-2.7-4.5-2.2-10t0.8-6.5q0.2-1 1.2-1t5.5-5.2q4.5-5.3 11-8.3t20.5-6 34-4 39 0.5 20.5 3.2q1.5 1.8-4.7 3.3-6.3 1.5-16.8 7t-13.5 9.5-2.5 9.5 3.2 10.7q2.8 5.3 4.3 6.3t4.3-7.3q2.7-8.2 7-11.4 4.2-3.3 16.2-7.3t23.5-6 30-1.5 22 1.8q3.5 1.2 3 3-0.5 1.7-19.7 5-19.3 3.2-28.6 6.4-9.2 3.3-12.4 6-3.3 2.8-3.3 10.3t0.3 7.7q0.2 0.3 0.4 0.6z"/>
  </g>
  <path d="m229.8 236.5l0.2 0.5-2 0.2q-2 0.3-24.5 11.3l-22.5 11-1 0.5-1 0.5-0.2 0.3-0.3 0.2-0.3 0.2-0.2 0.3-1 0.3-1 0.2-0.2 1-0.3 1-0.3 0.2-0.2 0.3 0.2 0.3 0.3 0.2 0.3 0.2 0.2 0.3 6 1q6 1 8 1.5l2 0.5 0.2 0.3 0.3 0.2 0.3 0.2 0.2 0.3 1.5 0.3 1.5 0.2-0.2 2-0.3 2-0.3 0.2-0.2 0.3-0.2 0.3-0.3 0.2-0.3 0.2-0.2 0.3-0.2 0.3-0.3 0.2-12 13.5q-12 13.5-26 33.5t-23 37-13.5 29.5-5 15.5l-0.5 3-0.3 2-0.2 2 2.5-0.2 2.5-0.3 6.5-1.5q6.5-1.5 15.5-1.5t10 0.5l1 0.5 0.2 0.3 0.3 0.2 0.3 0.2 0.2 0.3 0.2 0.3 0.3 0.2-1 9.5q-1 9.5-1 44.5t1.5 45.5 4 24.5 8.5 32 14.7 34.8q8.8 16.7 19.6 30 10.7 13.2 18.2 20.2t7.8 7.2l0.2 0.3 0.2 0.3 0.3 0.2 0.3 0.2 0.2 0.3 1 0.5 1 0.5h1l0.2-0.3 0.3-0.2 0.3-0.2 0.2-0.3 0.2-0.3 0.3-0.2 0.3-0.2 0.2-0.3 0.2-0.3 0.3-0.2 0.5-1.5q0.5-1.5 1-2.5t6.8-12.2l6.2-11.3 0.2-0.3 0.3-0.2 0.3-0.2 0.2-0.3h3l1 0.3q1 0.2 1 1.2t13.5 10.5 13.5 10.5 24.5 15.8q24.5 14.7 48.5 25.2t38 14.5 32.5 6.5 19 2.5 15.5 0.3l15 0.2v0.5l-2.5 0.5-2.5 0.5-0.2 0.3-0.3 0.2-0.3 0.2-0.2 0.3-1.5 0.5q-1.5 0.5-15 3t-30 3.5-34.5-1.5-42.5-10-38-13.5l-13.5-6-1-0.5-1-0.5-1-0.5-1-0.5-1-0.3-1-0.2 0.2 2.5 0.3 2.5 0.3 0.2 0.2 0.3 0.2 0.3 0.3 0.2 2.3 8q2.2 8 3.2 8t2 4.5 2 4.5 1.5 2.2q0.5 2.3 0.7 2.6l0.3 0.2 0.3 1.5 0.2 1.5h2l-0.2 1.5-0.3 1.5-0.3 0.2-0.2 0.3h-1l-5-0.5q-5-0.5-12.5-2.5t-20.5-7.5-17.5-7.2q-4.5-1.8-4.5-2.8t-9-5-9-5-3-2-3-2-2.5-2.2q-2.5-1.3-4.5-3.6-2-2.2-5-3.2t-3-2-7-6.2q-7-5.3-16.8-16-9.7-10.8-14-16.8-4.2-6-5.2-6t-1.2-1.5q-0.3-1.5-4-6.7-3.8-5.3-14.3-25.8t-17.7-43.2q-7.3-22.8-10.3-41.8t-2.3-42l0.8-23h-5v2l-4.5 1.8q-4.5 1.7-18 10.2t-14.5 8.8l-1 0.2v2h-5l0.2-15.5q0.3-15.5 2.3-28.5t7-30.5 10-28 6.3-14q1.2-3.5 2.2-3.5t1-2 1-2 1-2 1-2 2-3.5 2-3.5 1.2-1.5q0.3-1.5 7.8-14t15.5-22.5 19.7-19.8l11.8-9.7 0.2-0.3 0.3-0.2 0.3-0.2 0.2-0.3 1-0.5 1-0.5 0.2-0.3 0.3-0.2 0.3-0.2 0.2-0.3-0.2-0.3-0.3-0.2-0.3-0.2-0.2-0.3-0.2-0.3-0.3-0.2-0.3-0.2-0.2-0.3-0.2-0.3-0.3-0.2-0.3-0.2-0.2-0.3-12-0.5q-12-0.5-16-0.8l-4-0.2 0.2-1.5 0.3-1.5 0.3-0.2 0.2-0.3 0.2-0.3 0.3-0.2 0.3-0.2 0.2-0.3 0.2-0.3 0.3-0.2 0.3-0.2 0.2-0.3 0.2-0.3 0.3-0.2 0.3-0.2 0.2-0.3 0.2-0.3 0.3-0.2 10.3-7.8q10.2-7.7 23.7-16.2t21.5-12.5 10-4.3q2-0.2 2-1.2t12-4.8q12-3.7 15.2 1.6 3.3 5.2 6.3 8.2t3.3 3.5z" stroke="#fc4600" fill="#fc4600"/>
  <path d="m767 665.5h-1l-0.2 0.3-0.3 0.2-0.3 0.2q-0.2 0.3-1.2 0.6-1 0.2-1 1.2t-1 1-1 1-1 1-1 1-1 1-1.5 1.2l-0.5 1.3-0.2 0.3-0.3 0.2-0.3 0.2-0.2 0.3h-3l-0.2-0.3-0.3-0.2-0.3-0.2-0.2-0.3-0.2-0.3-0.3-0.2-0.5-1-0.5-1-0.5-1q-0.5-1-1.5-3t-1.7-8l-0.8-6-1 0.2-1 0.3-1 0.5-1 0.5-2 0.5q-2 0.5-8.8 4.8l-6.7 4.2-0.3 0.2-0.2 0.3-0.2 0.3-0.3 0.2-0.3 0.2-0.2 0.3-0.2 0.3-0.3 0.2-0.3 0.2-0.2 0.3h-2l-0.2-0.3-0.3-0.2-0.5-3q-0.5-3-1-10l-0.5-7 0.3-1.5 0.2-1.5-1 0.2-1 0.3-1.5 0.5-1.5 0.5-0.2 0.3-0.3 0.2-0.3 0.2-0.2 0.3-1 0.5q-1 0.5-5.2 4.8l-4.3 4.2-0.3 0.2-0.2 0.3-0.2 0.3-0.3 0.2-0.3 0.2-0.2 0.3-0.2 0.3-0.3 0.2-0.3 0.2-0.2 0.3-0.2 0.3-0.3 0.2-0.3 0.2-0.2 0.3-0.2 0.3-0.3 0.2-0.3-0.2-0.2-0.3-0.2-0.3-0.3-0.2-0.3-0.2-0.2-0.3-0.2-0.3-0.3-0.2-0.3-0.2-0.2-0.3-0.2-0.3-0.3-0.2-0.3-11-0.2-11-2 0.2-2 0.3-1 0.5-1 0.5-1.5 0.5q-1.5 0.5-9 4.5l-7.5 4-0.2 0.3-0.3 0.2-0.3 0.2-0.2 0.3-0.2 0.3-0.3 0.2-0.3 0.2-0.2 0.3-1.5 0.3-1.5 0.2 0.2-2.5 0.3-2.5 0.5-1 0.5-1 2.7-6.2q2.8-6.3 8.6-13.6 5.7-7.2 15.4-14.4 9.8-7.3 22.3-12.8t23.5-8 26-2.5 17 0.5l2 0.5h5l-0.2-0.3-0.3-0.2-0.3-0.2-0.2-0.3-0.2-0.3-0.3-0.2-0.3-0.2q-0.2-0.3-1.2-0.8t-1.8-2.2l-0.7-1.8 0.3-0.2 0.2-0.3 1-0.5q1-0.5 1.2-0.8l0.3-0.2 0.3-0.2 0.2-0.3 18.5-4q18.5-4 23.5-3.5t5.8 4.8q0.7 4.2 0.4 5.7-0.2 1.5-1.2 1.5t-1 1-1 1 0 4 2 4 6.2 8.5q5.3 8.5 7.3 16.5t1.5 15-2.2 12.2q-1.8 5.3-7.8 14.3t-13.5 15-12.5 7.5-15 1-16-3.5-9.5-7.5-4.5-4.5z" stroke="#fbfdfb" fill="#fbfdfb"/>
  <path d="m440 198.2l21-0.2v2l-1 0.2-1 0.3-0.2 0.3-0.3 0.2-0.3 0.2-0.2 0.3-1 0.5-1 0.5-3 0.5q-3 0.5-13.5 4.5t-15.5 7.3l-5 3.2-0.5 0.2-0.5 0.3-1 0.5-1 0.5-1 0.5-1 0.5-0.2 0.3-0.3 0.2-0.3 0.2-0.2 0.3-0.2 0.3-0.3 0.2-3.3 2q-3.2 2-3.2 3t-8.2 8q-8.3 7-18.8 19.5t-20 27.5-16.5 31-11.5 31-6.5 27-1.5 37.5 3.5 40.5 9.3 31.2q6.2 16.3 12.2 27.3t10 16.7q4 5.8 5 5.8t10.5 10.2q9.5 10.3 28.5 23.8t21 14.5 3 1.5l1 0.5 0.2 0.3 0.3 0.2 0.3 0.2 0.2 0.3 0.2 0.3 0.3 0.2 0.3 0.2 0.2 0.3 0.2 0.3 0.3 0.2 0.3 0.2 0.2 0.3-0.2 0.3-0.3 0.2-0.3 0.2-0.2 0.3-0.2 0.3-0.3 0.2-0.3 0.2-0.2 0.3-0.2 0.3-0.3 0.2-0.3 0.2-0.2 0.3-1 0.5q-1 0.5-6 3l-5 2.5-0.2 0.3-0.3 0.2-0.3 0.2-0.2 0.3-1 0.5-1 0.5-0.2 0.3-0.3 0.2-0.3 0.2-0.2 0.3-0.2 0.3-0.3 0.2-0.3 0.2-0.2 0.3 2.5 0.5 2.5 0.5 1 0.5 1 0.5 2.5 1q2.5 1 6.5 0.5t21.5-10 32-15 15.5-6l1-0.5 2-0.5 2-0.5 2-0.3 2-0.2-0.2 1.5-0.3 1.5-0.3 0.2-0.2 0.3-1.5 0.5-1.5 0.5-0.2 0.3-0.3 0.2-0.3 0.2-0.2 0.3-1.5 0.5q-1.5 0.5-14 8l-12.5 7.5-0.2 0.3-0.3 0.2-0.3 0.2-0.2 0.3-1 0.5-1 0.5-1 0.5-1 0.5-0.2 0.3-0.3 0.2-0.3 0.2-0.2 0.3 21-0.5q21-0.5 36-3.5t20-5 5.2-2.3l0.3-0.2 0.3-0.2 0.2-0.3 1-0.3 1-0.2-0.2-1-0.3-1-4-8.5q-4-8.5-4-13.5t15.7-13.2q15.8-8.3 31.8-14.3t25.5-8.5 11.5-3l2-0.5 3.5-0.3 3.5-0.2v2l-1 0.2-1 0.3-1.5 0.5-1.5 0.5-1 0.5-1 0.5-1.5 0.5q-1.5 0.5-14 5.5t-27.5 12.5l-15 7.5-1 0.5-1 0.5-0.2 0.3-0.3 0.2v2l0.5 1 0.5 1 0.3 0.2 0.2 0.3 0.2 0.3 0.3 0.2 0.3 0.2 0.2 0.3 6.5 5.5q6.5 5.5 7.5 6l1 0.5 1 0.3 1 0.2-0.2 1-0.3 1-0.3 0.2-0.2 0.3-0.2 0.3-0.3 0.2-0.3 1-0.2 1-1.5 0.2q-1.5 0.3-17.5 10.8t-30 21l-14 10.5-0.2 0.3-0.3 0.2-0.3 0.2-0.2 0.3-1 0.5-1 0.5-0.2 0.3-0.3 0.2-0.3 0.2-0.2 0.3-0.2 0.3-0.3 0.2-0.3 0.2-0.2 0.3 1.5 0.5 1.5 0.5 0.2 0.3 0.3 0.2 0.3 0.2 0.2 0.3 2.5 0.5 2.5 0.5 0.2 0.3 0.3 0.2 0.3 0.2 0.2 0.3 2.2-0.3q2.3-0.2 9-7 6.8-6.7 12.8-11 6-4.2 6-5.2t29.5-20.2q29.5-19.3 45-27.3t17-8.5l1.5-0.5 1-0.5 1-0.5 1-0.5 1-0.5 2-0.3 2-0.2v2l-1 0.2-1 0.3-0.2 0.3-0.3 0.2-0.3 0.2-0.2 0.3-0.2 0.3-0.3 0.2-0.3 0.2-0.2 0.3-1 0.5-1 0.5-0.2 0.3-0.3 0.2-0.3 0.2q-0.2 0.3-5.7 3.8t-22.5 16l-17 12.5-0.2 0.3-0.3 0.2-0.3 0.2-0.2 0.3-0.2 0.3-0.3 0.2-0.3 0.2-0.2 0.3 0.2 0.3 0.3 0.2 0.3 0.2 0.2 0.3 0.2 0.3 0.3 0.2 0.3 0.2 0.2 0.3 0.2 0.3 0.3 0.2 0.3 0.2 0.2 0.3 0.2 0.3 0.3 0.2 5.7 3.8q5.8 3.7 7.3 4.2l1.5 0.5 0.2 0.3 0.3 0.2v3l-0.3 0.2-0.2 0.3-0.2 0.3-0.3 0.2-0.3 0.2-0.2 0.3-0.2 0.3-0.3 0.2-0.3 0.2-0.2 0.3-1 0.5q-1 0.5-7 5t-11 8.2q-5 3.8-5 4.8t-1 1-1 1-4.5 4.2q-4.5 3.3-19 5.8t-43.5 3-46.5-2-40-8.5-40.5-13.3l-18-7.2-0.2-0.5-0.3-0.5-0.3-0.2-0.2-0.3-0.2-0.3-0.3-0.2-0.3-0.2-0.2-0.3-0.2-0.3-0.3-0.2-0.3-0.2-0.2-0.3-0.2-0.3-0.3-0.2-0.3-0.2-0.2-0.3-0.2-0.3-0.3-0.2-0.3-0.2-0.2-0.3-0.2-0.3-0.3-0.2-0.3-0.2-0.2-0.3-0.2-0.3q-0.3-0.2-2.6-3.2-2.2-3-3.2-3.2-1-0.3-2-2-1-1.8-2-1.8t-11.5-13.2q-10.5-13.3-22.5-30.8t-21.5-36-15.3-35.8q-5.7-17.2-8.7-30.7t-3-44 3-44 7.5-27.5 12-29.5 16-28 16.5-21 15.7-14.7q7.8-6.3 21.8-13.8t28.5-11.5 35.5-4.3z" stroke="#fbfcfa" fill="#fbfcfa"/>
  <path d="m493.8 251.8l2.7 3.2 0.3 1 0.2 1-0.5 0.2q-0.5 0.3-0.5 0.6v0.2l0.8 5q0.7 5 2.4 8.2 1.8 3.3 6.8 6.3t12 5 11.5 2.5l4.5 0.5 1 0.3 1 0.2-0.2 1-0.3 1-0.3 0.2-0.2 0.3-1 0.5-1 0.5-0.2 0.3-0.3 0.2-0.3 0.2-0.2 0.3-9 4.3q-9 4.2-9 5.2t-2.8 2.5q-2.7 1.5-7.7 8.5t-6.5 12.5-1 13 1.8 10.3q1.2 2.7 1.4 3l0.3 0.2 0.3 1.5 0.2 1.5h2v3h3l0.2-2.5 0.3-2.5 4.5-8q4.5-8 9.2-12.8 4.8-4.7 10.3-7.7t8-4 6-1.5l3.5-0.5 1-0.5 1-0.5h2l0.2 0.3 0.3 0.2v3l-0.3 0.2-0.2 0.3-0.2 0.3-0.3 0.2-0.3 0.2-0.2 0.3-0.2 0.3-0.3 0.2-0.3 0.2-0.2 0.3-0.2 0.3-0.3 0.2-8.5 16q-8.5 16-10.5 22t-1.5 16.5 3 18 8.8 16.5q6.2 9 15.2 15.2 9 6.3 9.2 6.6l0.3 0.2 0.3 0.2 0.2 0.3 1.5 0.5 1.5 0.5 0.2 0.3 0.3 0.2 0.3 0.2 0.2 0.3 0.2 0.3 0.3 0.2 0.3 0.2 0.2 0.3 0.2 0.3 0.3 0.2v1l-0.3 0.2-0.2 0.3h-7q-7 0-12-1t-16-5-23.5-11.5-21.3-14.8q-8.7-7.2-16.4-17-7.8-9.7-10.6-18-2.7-8.2-3.2-23.2t2.5-25 9-22l6-12 0.5-1 0.5-1 0.5-1 0.5-1 0.5-1 0.5-1 0.3-0.2 0.2-0.3 0.2-0.3 0.3-0.2 0.3-0.2 0.2-0.3h-2l-1 0.5-1 0.5-0.2 0.3-0.3 0.2-0.3 0.2-0.2 0.3-0.2 0.3-0.3 0.2-0.3 0.2-0.2 0.3-1 0.5-1 0.5-0.2 0.3-0.3 0.2-9.5 9.5q-9.5 9.5-17 21t-12.5 24-8 30.5-2 34 6 35 13.5 36 14.2 26q5.8 9 6.8 9t5.5 6.5 5.5 6.5 1 1 1 1 1 1 1 1 1 1 1 1 1 1 1 1 1 1 1 1.2l1 0.3 0.2 0.3 0.3 0.2 0.3 0.2 0.2 0.3 0.2 0.3 0.3 0.2 0.3 0.2 0.2 0.3 0.2 0.3 0.3 0.2 0.3 0.2 0.2 0.3 1 0.5 1 0.5v1l0.5 0.3 0.5 0.2v0.5h-2l-0.2-0.3-0.3-0.2-0.3-0.2-0.2-0.3-1.5-0.5-1.5-0.5-0.2-0.3-0.3-0.2-0.3-0.2-0.2-0.3-1-0.5q-1-0.5-14-9.5t-29-25-24-27.5-14.8-25.8q-6.7-14.2-9.2-25.7t-3-33 0.5-28.5 4-18 11.5-30.5 19-35.5 15.5-21.5 10.7-8.7q5.8-3.3 15.3-3.8t16.5 2 9.8 5.8z" stroke="#fbfdfa" fill="#fbfdfa"/>
  <path d="m790.2 457l-0.2-1h2v2h2l0.2 1 0.3 1 0.3 0.2 0.2 0.3 0.2 0.3 0.3 0.2 0.3 0.2 0.2 0.3 8 7.5q8 7.5 17.5 13t11.5 6 3 1l1 0.5 3 0.5 3 0.5 0.2 0.3 0.3 0.2 0.3 0.2 0.2 0.3 0.5 0.3 0.5 0.2 3.8 5q3.7 5 4.7 6t1 11v10l-0.3 0.2-0.2 0.3h-1.5q-1.5 0-3.5-1.5l-2-1.5-1-0.3-1-0.2 0.2 1.5 0.3 1.5 0.5 1.5q0.5 1.5 0.5 7.5t-1 9-4.5 8.5-13.8 8.7q-10.2 3.3-27.7 5.8t-33.5 1.5l-16-1-0.2-0.3-0.3-0.2-0.3-0.2-0.2-0.3-1-0.5-1-0.5 0.2-0.3 0.3-0.2 0.3-0.2 0.2-0.3 1-0.5 1-0.5 1.5-0.5 1.5-0.5 0.2-0.3 0.3-0.2 0.3-0.2 0.2-0.3 3.5-1q3.5-1 17-2t18.3-2.7q4.7-1.8 5-2l0.2-0.3 2-0.5 2-0.5 0.2-0.3 0.3-0.2 0.3-0.2 0.2-0.3 1.5-0.3 1.5-0.2-0.2-1-0.3-1-0.3 0.2-0.2 0.3-3.5 0.5-3.5 0.5-1.5 0.5q-1.5 0.5-9 0t-15.5 0.5-19 5.5-16 5.5-5.5 0.3q-0.5-0.8-3-0.8t-2.5-1-3-2.2l-3-1.3-0.2-0.3-0.3-0.2-0.3-0.2-0.2-0.3-0.2-0.3-0.3-0.2-0.3-0.2-0.2-0.3-1-0.5-1-0.5-0.2-0.3-0.3-0.2v-2l0.3-0.2 0.2-0.3 2-0.5 2-0.5 0.2-0.3 0.3-0.2 0.3-0.2 0.2-0.3 4-1q4-1 6.8 1.7 2.7 2.8 16.4-4.4 13.8-7.3 19.8-9.3t8-2.5l2-0.5 1.5-0.5 1.5-0.5 3-0.5 3-0.5h-12.5q-12.5 0-17.5 1t-27.5 8.5-28.5 5.8q-6-1.8-6-2.8t-1-1-4.2-4l-3.3-4-0.3-0.2-0.2-0.3-0.2-0.3-0.3-0.2-0.5-1.5-0.5-1.5-0.3-0.2-0.2-0.3-0.2-0.3-0.3-0.2-0.3-0.2-0.2-0.3 0.2-0.3 0.3-0.2 0.3-0.2 0.2-0.3 1.5-0.5 1.5-0.5 0.2-0.3 0.3-0.2 0.3-0.2 0.2-0.3 7-1.5q7-1.5 8-1.2 1 0.2 2.5 3.4 1.5 3.3 16.5-3.2t24.5-8 11-2l1.5-0.5 4.5-0.5 4.5-0.5-3-0.5-3-0.5-4-0.5q-4-0.5-20 0.5t-37.5 5.3l-21.5 4.2h-0.5l-0.5-1-0.5-1-0.3-0.2-0.2-0.3-0.2-0.3-0.3-0.2v-10l0.3-0.2 0.2-0.3 0.2-0.3 0.3-0.2 0.3-0.2 0.2-0.3 0.2-0.3 0.3-0.2 0.3-0.2 0.2-0.3 1-0.5 1-0.5 2.2 0.3q2.3 0.2 5 4 2.8 3.7 5.8 4 3 0.2 3-0.8t2-1 2-1 18.5-6.2q18.5-5.3 35.5-8 17-2.8 19.5-6.6 2.5-3.7 5-5.2t9.5-1 9.5 1l2.5 0.5 0.2 0.3 0.3 0.2 0.3 0.2 0.2 0.3h4l-0.2-0.3-0.3-0.2-0.3-0.2-0.2-0.3-0.2-0.3-0.3-0.2-0.3-0.2-0.2-0.3-0.2-0.3-0.3-0.2-0.3-0.2-0.2-0.3-0.2-0.3-0.3-0.2-0.5-1-0.5-1-0.3-0.2-0.2-0.3-0.2-0.3q-0.3-0.2-4.3-7.2l-4-7-0.3-0.2-0.2-0.3-0.2-0.3-0.3-0.2-0.5-2-0.5-2-0.3-1z" stroke="#fbfcfa" fill="#fbfcfa"/>
  <path d="m265 109v1h2v5l-1 0.2-1 0.3-1.5 0.5q-1.5 0.5-3 0.5t-6 1.3q-4.5 1.2-4.5 2.2t-2 1-2 1.5 1 1.7q1 0.3 0 0.8l-1 0.5-0.2 0.3-0.3 0.2-0.3 0.2-0.2 0.3-1.5 0.3-1.5 0.2 0.2 2 0.3 2 0.3 1 0.2 1 5.5 0.8q5.5 0.7 6.5 1.2t3 1l2 0.5 1 0.3 1 0.2 0.2 1 0.3 1 0.3 0.2 0.2 0.3-1 0.5-1 0.5-0.2 0.3-0.3 0.2-0.3 0.2-0.2 0.3-0.2 0.3q-0.3 0.2-0.6 1.2-0.2 1-1.7 1.2-1.5 0.3-2 1.6-0.5 1.2-1.5 1.2h-1l-0.2 1-0.3 1-0.3 0.2-0.2 0.3-0.2 0.3-0.3 0.2-0.3 0.2-0.2 0.3-1 0.5-1 0.5 12 1.5q12 1.5 13.5 1.8l1.5 0.2-0.2 2.5q-0.3 2.5-1.3 6t-1.3 7.5l-0.2 4 1.5-0.2 1.5-0.3 0.2-0.3 0.3-0.2 0.3-0.2 0.2-0.3 6.5-2.5q6.5-2.5 9-2l2.5 0.5 0.2 0.3 0.3 0.2 0.5 1.5q0.5 1.5 0.5 2.5t0 9.5 2.5 15 1.2 7.5q-1.2 1-1.2 2t-1.8 1.5q-1.7 0.5-9 3.7-7.2 3.3-14.2 3.8t-15.5-3.8q-8.5-4.2-8.5-5.2t-1-1-1-1-1-1-3.8-5.5q-2.7-5.5-3.7-16t-11.7-17.5q-10.8-7-10.8-8t-1-1-1-1-1-1-1.8-1.5q-0.7-1.5-8.7-12.5t-14-25.5-6-30 1.3-19.3q1.2-3.7 2.7-6.2t5.5-5.5 8-1.7q4 1.2 4 2.2t11 9.2q11 8.3 14.5 12 3.5 3.8 7.5 7 4 3.3 7.5 7 3.5 3.8 4.5 3.8t1.2 1q0.3 1 1.6 1.5 1.2 0.5 3.7 4t3.5 3.5 1 1 1 1 1 1 1 1 1 1z" stroke="#fbfdfa" fill="#fbfdfa"/>
  <g stroke="#fbfdfb" fill="#fbfdfb">
   <path d="m568 414.5v-1.5l10.5 3.2q10.5 3.3 20.3 9 9.7 5.8 16.7 12.8t10 15 2.5 11.5-3.8 7.7q-3.2 4.3-7.2 6.3t-15 2h-11l-1-0.5-1-0.5-0.2-0.3-0.3-0.2v2l0.5 1 0.5 1 0.3 0.2 0.2 0.3 0.2 0.3 0.3 0.2 0.5 1 0.5 1 5.7 7.2q5.8 7.3 6.8 7.8l1 0.5 0.2 0.3 0.3 0.2 0.3 0.2 0.2 0.3 0.2 0.3 0.3 0.2 0.3 0.2 0.2 0.3 0.2 0.3 0.3 0.2 0.3 0.2 0.2 0.3 0.2 0.3 0.3 0.2 0.3 0.2 0.2 0.3 0.2 0.3 0.3 0.2v1l-0.3 0.2-0.2 0.3h-6.5q-6.5 0-12-2t-11.3-6.3q-5.7-4.2-12.2-11.2t-11-16-5.8-17l-1.2-8 1.5 0.2 1.5 0.3 0.2 0.3 0.3 0.2 0.3 0.2 0.2 0.3 0.2 0.3 0.3 0.2 0.3 0.2 0.2 0.3 0.2 0.3 0.3 0.2 0.3 0.2 0.2 0.3 1 0.5q1 0.5 2.5 1.5t9 4 14 3.5 8.5-0.5 3.2-2.7q1.3-1.8 1.8-6.3t-2.8-11q-3.2-6.5-4.2-6.5t-1.2-1q-0.3-1-7.6-7.2l-7.2-6.3-1-0.3q-1-0.2-1-1.2t-1-1-1-1.5z"/>
   <path d="m872.2 492.2l-0.2 0.3-0.2 0.3-0.3 0.2-0.3 0.2-0.2 0.3h-7l-1-0.3-1-0.2v-1q0-1-1-1t-2.2-4q-1.3-4-2.3-9t-3.7-8.8q-2.8-3.7-12.3-7.4l-9.5-3.8-0.2-1.5-0.3-1.5v-4l1.5-3q1.5-3 2.8-4.2 1.2-1.3 4.7-0.8t14 5 19.3 6.2q8.7 1.8 8.7 10.3t-2.7 16.5q-2.8 8-3.8 8t-1.8 1.5q-0.7 1.5-1 1.7z"/>
  </g>
  <path d="m537.5 191l1.5-0.5 0.2-0.3 0.3-0.2 0.3 0.2 0.2 0.3 0.2 0.3 0.3 0.2v1l-0.5 1-0.5 1-0.3 0.2-0.2 0.3-0.2 0.3-0.3 0.2-0.3 0.2-0.2 0.3-0.2 0.3-0.3 0.2-1.5 3q-1.5 3-1.8 7.5l-0.2 4.5 1.5-0.2 1.5-0.3 0.2-0.3 0.3-0.2 0.3-0.2 0.2-0.3 0.2-0.3 0.3-0.2 0.3-0.2 0.2-0.3 0.2-0.3 0.3-0.2 7.7-3.8q7.8-3.7 19.3-6.2t11.7-2.2q0.3 0.2 0.6 1.2l0.2 1 1 4.8q1 4.7 2 5 1 0.2 1-0.8t9.5-5.8q9.5-4.7 13-5.7t5.5-1.3l2-0.2h2.5q2.5 0 2.3 1l-0.3 1-0.3 0.2-0.2 0.3-1.5 0.5q-1.5 0.5-4.5 2.5t-11.5 10.5-20 8.5h-11.5l-1 0.5-1 0.5-3.5 0.5-3.5 0.5 0.5 0.3 0.5 0.2v0.5l0.2 0.3q0.3 0.2 0.6 0.4 0.2 0.3 1.2 5 1 4.8-4.5 7.3t-5.5 3.5-1 1-1.2 1l-0.3 1-0.3 0.2-0.2 0.3-0.2 0.3-0.3 0.2-0.3 0.2-0.2 0.3-0.2 0.3-0.3 0.2-0.3 0.2-0.2 0.3-0.2 0.3-0.3 0.2-0.5 1-0.5 1-0.3 0.2-0.2 0.3 0.2 0.3 0.3 0.2 0.3 0.2 0.2 0.3 1.5 0.5 1.5 0.5 8 3.5q8 3.5 11.8 6.2 3.7 2.8 2.7 5.8t-2 6.5-1 6v2.5l0.3 2 0.2 2h12l11 1q11 1 12-2t2-3 1-1 5-2.2q5-1.3 14.8 1.4 9.7 2.8 14 4.3 4.2 1.5 4.2 2.5t1.5 1 1.5 1v1h2l0.2 1 0.3 1 0.3 0.2 0.2 0.3 0.2 0.3 0.3 0.2 0.3 0.5 0.2 0.5v0.5l0.2 0.3 0.3 0.2 0.3-0.5 0.2-0.5 0.5-0.2q0.5-0.3 0.7-0.6l0.3-0.2 0.3-1.5 0.2-1.5 1 0.2 1 0.3 0.2 0.3 0.3 0.2 0.3-0.5 0.2-0.5h0.5l0.3 0.2 0.2 0.3 3 5.3q3 5.2 10.5 9 7.5 3.7 11.7 10 4.3 6.2 5.3 10.2t1.5 6l0.5 2 0.3 4 0.2 4-1-0.2-1-0.3-0.2-0.3-0.3-0.2-0.3-0.2-0.2-0.3-1-0.3-1-0.2-0.2-0.5-0.3-0.5-0.3-0.2-0.2-0.3-0.2-0.3-0.3-0.2-0.3-0.2-0.2-0.3-0.2-0.3-0.3-0.2-0.3-0.2-0.2-0.3-0.2-0.3-0.3-0.2-0.3-0.2-0.2-0.3-0.2-0.3q-0.3-0.2-4.8-5.2t-19.8-12.2q-15.2-7.3-34.2-12.8t-46-5.8l-27-0.2 0.2-2q0.3-2 2.6-8.8l2.2-6.7 0.2-0.3 0.3-0.2 0.3-0.2 0.2-0.3-1.5-0.5q-1.5-0.5-6.5-1.5t-8.8-3.7q-3.7-2.8-5.2-5.8t-2-11.5 0.5-12.5 4-11l3-7 0.5-1 0.5-1 0.5-1 0.5-1 0.3-0.2 0.2-0.3h-3l-0.2 0.3-0.3 0.2-0.3 0.2-0.2 0.3-2 0.5-2 0.5-0.2 0.3-0.3 0.2-0.3 0.2q-0.2 0.3-2.2 0.8t-9.2 5.2l-7.3 4.8-0.3 0.2-0.2 0.3-0.2 0.3-0.3 0.2-0.3 0.2-0.2 0.3-1 0.5-1 0.5-0.2 0.3-0.3 0.2h-0.5l-0.5-0.2-0.5-0.3-0.2-0.3-0.3-0.2 0.5-7.5q0.5-7.5 4-14.5t4.8-7.5q1.2-0.5 1.2-1.5t1-1 1-1 4.5-3.8q4.5-2.7 5.5-3.2l1-0.5 1-0.5 1-0.5 0.2-0.3 0.3-0.2 0.3-0.2 0.2-0.3 1.5-0.5z" stroke="#fbfcf9" fill="#fbfcf9"/>
  <path d="m560 221.2v-0.2l1 0.2 1 0.3 1 0.5 1 0.5 1 0.5 1 0.5 4.5 3.5q4.5 3.5 5.5 3.8l1 0.2v2h2l0.2 1 0.3 1 0.3 1.5 0.2 1.5-1.5-0.2-1.5-0.3h-12l-0.2 0.3-0.3 0.2-0.3 0.2-0.2 0.3-0.2 0.3-0.3 0.2-0.3 0.2-0.2 0.3-1 0.3-1 0.2v2l1 0.2 1 0.3 1 0.5 1 0.5 0.2 0.3 0.3 0.2 0.3 0.2 0.2 0.3 8 4q8 4 12.8 7.7 4.7 3.8 5 4.8l0.2 1h2l0.2 1 0.3 1 0.3 0.2 0.2 0.3 0.2 0.3 0.3 0.2 0.3 1.5 0.2 1.5-5 0.2q-5 0.3-7 2.3l-2 2-0.2 0.3-0.3 0.2-0.5 2-0.5 2v4l0.3 1 0.2 1h-12l-0.2-2-0.3-2v-2.5q0-2.5 1-6t2-6.5-2.7-5.8q-3.8-2.7-11.8-6.2l-8-3.5-1.5-0.5-1.5-0.5-0.2-0.3-0.3-0.2-0.3-0.2-0.2-0.3 0.2-0.3 0.3-0.2 0.5-1 0.5-1 0.3-0.2 0.2-0.3 0.2-0.3 0.3-0.2 0.3-0.2 0.2-0.3 0.2-0.3 0.3-0.2 0.3-0.2 0.2-0.3 0.2-0.3 0.3-0.2 0.3-1q0.2-1 1.2-1t1-1 5.5-3.5 4.5-7.3q-1-4.7-1.2-5-0.3-0.2-0.6-0.4l-0.2-0.3v-0.3z" stroke="#fc4600" fill="#fc4600"/>
  <path d="m711.2 307.8l0.3 0.2 0.3 0.2 0.2 0.3 0.2 0.3 0.3 0.2 0.3 0.2 0.2 0.3 0.2 0.3 0.3 0.2 0.3 1 0.2 1-3-0.2-3-0.3-2-0.5q-2-0.5-8-3t-9.2-5.8l-3.3-3.2-0.3-0.2-0.2-0.3-0.2-0.3-0.3-0.2-0.3-4.5q-0.2-4.5 3.3-4.3 3.5 0.3 6.5 2 3 1.8 3 2.8t1 1 1 1 1 1 1 1 5 5.2q5 4.3 5.2 4.6z" stroke="#010000" fill="#010000"/>
  <path d="m775.8 407.2l0.2 0.3 0.2 0.3 0.3 0.2 0.3 0.2 0.2 0.3 0.2 0.3 0.3 0.2 0.3 0.2 0.2 0.3 0.2 0.3 0.3 0.2 0.5 1 0.5 1 0.3 0.2 0.2 0.3 0.2 0.3 0.3 0.2 0.3 1 0.2 1-1-0.2-1-0.3-0.2-0.3-0.3-0.2-0.3-0.2-0.2-0.3-2-0.5-2-0.5-0.2-0.3-0.3-0.2-0.3-0.2-0.2-0.3-7-4.7q-7-4.8-7-5.8t-14.5-12.8q-14.5-11.7-22.7-22-8.3-10.2-8.6-13.7-0.2-3.5 2.6-2 2.7 1.5 31.2 29t28.8 27.7z" stroke="#030101" fill="#030101"/>
  <path d="m640 313.2l1 0.3 0.2 0.3 0.3 0.2 0.3 0.2 0.2 0.3 0.2 0.3 0.3 0.2 0.3 0.2 0.2 0.3 0.2 0.3 0.3 0.2 0.3 0.2 0.2 0.3 0.2 0.3 0.3 0.2v5l-0.3 1-0.2 1h-2v2l-1 0.2q-1 0.3-3.5 1.8t-10.5 2-11.5-1-7.7-5.8q-4.3-4.2-4.3-11.7t5.7-7.3q5.8 0.3 7 4 1.3 3.8 4 6.6 2.8 2.7 8.3 3.2t8-2.2q2.5-2.8 3.5-2.6z" stroke="#f9faf9" fill="#f9faf9"/>
  <path d="m604.8 241.8l0.2-0.3h4l9 4.5q9 4.5 13.5 7.2 4.5 2.8 4.5 3.8t1 1 10.2 12.5q9.3 12.5 9.8 13.5l0.5 1 0.3 1 0.2 1-0.2 0.5-0.3 0.5-0.3-0.2-0.2-0.3-1-0.3-1-0.2-0.2 1.5-0.3 1.5-0.3 1-0.2 1-1-0.2-1-0.3v-1l0.2-0.3 0.3-0.2v-3l-0.3-0.2-0.2-0.3-0.2-0.3-0.3-0.2-0.5-1.5-0.5-1.5-0.3-0.2-0.2-0.3-0.2-0.3q-0.3-0.2-8-5.4-7.8-5.3-16.8-8-9-2.8-9-3.8t-1.5-1.2q-1.5-0.3-7-5.8l-5.5-5.5-0.2-0.3-0.3-0.2v-8l0.3-0.2 0.2-0.3 1-0.5 1-0.5 0.2-0.3 0.3-0.2 0.3-0.2z" stroke="#f9faf8" fill="#f9faf8"/>
 </g>
</svg>
